<?xml version="1.0" encoding="UTF-8"?>
<!DOCTYPE svg PUBLIC "-//W3C//DTD SVG 1.1//EN" "http://www.w3.org/Graphics/SVG/1.1/DTD/svg11.dtd">
<!-- Creator: CorelDRAW 2018 (64-Bit) -->
<svg xmlns="http://www.w3.org/2000/svg" xml:space="preserve" width="451.556mm" height="555.284mm" version="1.1" style="shape-rendering:geometricPrecision; text-rendering:geometricPrecision; image-rendering:optimizeQuality; fill-rule:evenodd; clip-rule:evenodd"
viewBox="0 0 42232.11 51933.44"
 xmlns:xlink="http://www.w3.org/1999/xlink">
 <defs>
  <style type="text/css">
   <![CDATA[
    .fil0 {fill:#1D1819}
   ]]>
  </style>
 </defs>
 <g id="Layer_x0020_1">
  <metadata id="CorelCorpID_0Corel-Layer"/>
  <path class="fil0" d="M33554.21 17195.62c-819.43,156.75 -673.07,712.12 -743.55,1066.02 -77.01,386.65 -530.91,639.85 291.16,1118.33 212.92,123.93 361.99,198.2 401.22,479.73 38.89,279.04 167.12,432.2 378.67,535.08 462.63,225 635.78,-220.51 1446.25,-239.01 854.41,-19.49 392.28,-663.57 744.78,-1060.1 294.49,-331.29 706.98,-651.26 326.13,-1161.77 -431.23,-578.05 -929.68,-419.74 -1700.37,-549.31 -273.17,-45.92 -567.56,-299.3 -1144.29,-188.98zm2580.37 4622.7c-1181.54,151.61 -2205.95,1604.33 -2489.54,2676.73 -82.9,313.51 -149.23,689 -244.71,1007.38 -94,313.41 -359.59,683.97 -158.54,955.75 194.94,263.49 625.29,298.53 1000.32,148.17 297.52,-119.27 557.12,-373.31 750.83,-543.88 682.16,-600.68 858.18,-529.34 1942.53,-609.16 414.49,-30.51 704.22,-104.1 987.98,-309.6 212.16,-153.66 433.77,-397.05 547.98,-745.66 441.63,-1347.99 -1242,-2720.21 -2336.86,-2579.72zm485.51 25313.87c418.85,-649.97 287.44,-1133.87 1167.76,-1355.98 395.55,-99.8 661.24,-156.19 849.6,-414.75 194.29,-266.69 221.69,-655.86 106.86,-1006.46 -169.45,-517.38 -808.28,-958.05 -1418.66,-1092.28 -678.71,-228.09 -1512.24,-220.41 -1467.53,-1324.9 20.03,-494.96 420.58,-1842.9 -496.86,-2050.43 -707.09,-159.95 -1512.68,700.34 -2209.09,393.9 -302.3,-133.02 -529.96,-508.01 -958.94,-193.19 -270.72,198.69 -386.67,553.71 -249.4,1011.87 222.81,743.61 815.71,1216.39 351.47,2097.83 -310.8,590.09 -781.55,1008.5 -741.91,2046.83 17.55,459.78 134.21,825.33 653.72,761.48 475.92,-58.49 654,-246.04 1167.56,-23.69 577.19,249.9 950.58,780.94 1326.57,1084.09 555.38,447.76 1410.16,855.02 1918.84,65.68zm-29275.13 -24339.44c-66.41,12.34 -26.69,0.38 -91.96,39.12 -40.25,23.89 -63.48,40.9 -99.12,62.04 -546.5,324.07 -1163.87,386.43 -1541.87,-200.13 -418.85,-649.96 -287.45,-1133.87 -1167.76,-1355.98 -395.54,-99.79 -661.25,-156.18 -849.6,-414.74 -194.28,-266.7 -221.69,-655.86 -106.86,-1006.47 169.45,-517.36 808.28,-958.03 1418.66,-1092.27 678.71,-228.08 1512.23,-220.41 1467.53,-1324.9 -20.03,-494.97 -420.58,-1842.9 496.86,-2050.43 707.09,-159.96 1512.67,700.34 2209.1,393.9 302.29,-133.02 529.95,-508 958.92,-193.19 270.73,198.7 386.68,553.71 249.41,1011.87 -222.81,743.61 -815.71,1216.39 -351.47,2097.83 310.79,590.09 781.55,1008.49 741.91,2046.83 -17.55,459.77 -134.2,825.32 -653.72,761.48 -475.92,-58.49 -654,-246.04 -1167.57,-23.68 -577.19,249.89 -950.57,780.93 -1326.55,1084.08 -61.43,49.51 -145.3,95.55 -185.9,164.64zm26075.41 8253.74c491.58,197.31 1361.91,833.5 1039.91,1587.05 -267.99,627.16 -1033.25,789.79 -1253.48,1511.82 -195.68,641.56 192.14,1714.19 -571.11,2191.3 -416.57,260.4 -727.51,-58.81 -902.31,-305.54 -455.39,-642.76 -935.94,-1002.49 -1829.18,-938.17 -1017.32,73.28 -1202.56,-88.47 -1642.52,-1069 -166.2,-370.42 -285.33,-612.07 -501.11,-893.59 -524.61,-684.44 -1462.06,-1636.09 -133.7,-2643.73 221.33,-167.89 400.8,-270.5 623.71,-409.67l200.55 -143.26c239.89,-100.13 562.02,-414.57 700.18,-614.33 352.2,-509.24 405.11,-1226.47 1126.14,-1469.71 351.13,-118.46 760.69,-61.78 1052.03,101.75 659.53,370.19 558.82,1027.79 767.69,1827.8 197.1,754.93 696.81,925.89 1323.18,1267.29zm-24608.65 -24438.4c-491.58,197.31 -1361.91,833.5 -1039.91,1587.05 267.99,627.16 1033.25,789.79 1253.48,1511.82 195.68,641.56 -192.14,1714.19 571.11,2191.3 416.57,260.4 727.51,-58.81 902.31,-305.54 455.39,-642.76 935.94,-1002.49 1829.18,-938.17 1017.32,73.28 1202.56,-88.47 1642.52,-1069 166.2,-370.42 285.33,-612.07 501.11,-893.59 524.61,-684.44 1462.06,-1636.09 133.7,-2643.73 -221.33,-167.89 -400.8,-270.5 -623.71,-409.67l-200.55 -143.26c-239.89,-100.13 -562.02,-414.57 -700.18,-614.33 -352.2,-509.24 -405.11,-1226.47 -1126.14,-1469.71 -351.13,-118.46 -760.69,-61.78 -1052.03,101.75 -659.53,370.19 -558.82,1027.79 -767.69,1827.8 -197.1,754.93 -696.81,925.89 -1323.18,1267.29zm-8811.73 36565.55l0 -7696.1c688.92,-336.83 668.13,-91.82 1338.7,-123.42 897.02,-42.26 848.92,-1164.98 2031.73,-1105.3 890.34,44.91 2675.27,948.47 2250.31,2327.26 -242.71,787.45 -891.34,1259.86 -1003.55,2133.64 -151.9,1182.83 974.31,995.55 1322.94,1802.95 176.6,409.02 125.6,908.5 -76.11,1275.94 -553.1,1007.52 -2009.18,1539.39 -3238.75,1461.91 -458.93,-28.91 -878.71,-162.55 -1332,-231.03 -596.86,-90.18 -797.06,-10.21 -1293.26,154.14zm42232.11 -24438.4l0 -7696.1c-688.92,-336.83 -668.13,-91.81 -1338.7,-123.42 -897.02,-42.26 -848.93,-1164.98 -2031.73,-1105.3 -890.34,44.92 -2675.28,948.47 -2250.31,2327.26 242.71,787.45 891.34,1259.86 1003.55,2133.64 151.9,1182.83 -974.31,995.55 -1322.94,1802.95 -176.6,409.02 -125.6,908.5 76.11,1275.94 553.1,1007.52 2009.17,1539.39 3238.75,1461.91 458.93,-28.91 878.72,-162.55 1332,-231.03 596.86,-90.18 797.06,-10.21 1293.26,154.14zm-21264.08 24181.34c804.34,269.83 1586.92,1379.73 1326.45,2559.87 -116,525.57 -430.47,973.59 -852.56,1127.31 -297.68,108.42 -591.35,12.11 -898.58,-12 -716.2,-56.21 -770.07,527.85 -1513.29,480.45 -288.64,-18.41 -542.47,-136.5 -710.92,-272.81 -527.99,-427.23 -387.1,-765.16 -432.96,-1542.52 -71.97,-1220.3 -1362.89,-1089.59 -2090.15,-1852.93 -440.5,-462.35 -226.34,-1029.67 103,-1405.75 159.84,-182.52 315.95,-327.33 503.27,-497.53 840.52,-763.72 550.16,-1283.51 928,-2031.4 212.9,-421.43 571.01,-769.04 979.85,-978.71 599.05,-307.21 1134.03,-215.38 975.74,612.63 -102.18,534.45 -333.77,1146.66 -107.79,1706.63 220.11,545.41 656.44,534.8 1179.18,800.05 238.54,121.04 382.06,254.75 504.82,475.23 156.35,280.82 145.35,486.93 105.95,831.47zm296.05 -24438.4c-804.34,269.83 -1586.92,1379.73 -1326.45,2559.87 116,525.57 430.47,973.59 852.56,1127.31 297.68,108.42 591.35,12.11 898.58,-12 716.2,-56.21 770.07,527.85 1513.29,480.45 288.64,-18.41 542.47,-136.5 710.92,-272.81 527.99,-427.23 387.1,-765.16 432.96,-1542.52 71.97,-1220.3 1362.89,-1089.59 2090.15,-1852.93 440.5,-462.35 226.34,-1029.67 -103,-1405.75 -159.84,-182.52 -315.95,-327.33 -503.27,-497.53 -840.52,-763.72 -550.16,-1283.51 -928,-2031.4 -212.9,-421.43 -571.01,-769.04 -979.85,-978.71 -599.05,-307.21 -1134.03,-215.38 -975.74,612.63 102.18,534.45 333.77,1146.66 107.79,1706.63 -220.11,545.41 -656.44,534.8 -1179.18,800.05 -238.54,121.04 -382.06,254.75 -504.82,475.23 -156.35,280.82 -145.35,486.93 -105.95,831.47zm20968.03 28462.02c-390.12,-113.47 -304.2,-760.44 0,-875.76l0 875.76zm-42232.11 -24438.4c390.12,-113.47 304.2,-760.44 0,-875.76l0 875.76zm0 22623.24l0 -1001.43c124.12,47.52 269.28,316.93 304.79,517.53 47.08,265.9 -78.8,434.07 -304.79,483.89zm42232.11 -24438.4l0 -1001.43c-124.12,47.52 -269.28,316.93 -304.79,517.53 -47.08,265.9 78.8,434.07 304.79,483.89zm0 -18489.17l0 -1828.68c-257.93,102.78 -429.66,520.94 -370.23,903 52.7,338.77 115.56,848.34 370.23,925.68zm-1480.15 49503.85c117.13,67.87 154.9,102.85 190.32,232.13l-1734.79 0c74.43,-359.67 328.68,-153.72 580.92,-392.11 310.14,-293.11 666.53,-12.21 963.56,159.98zm395 -51469.18c117.13,-67.87 154.9,-102.85 190.32,-232.13l-1734.79 0c74.43,359.67 328.68,153.72 580.92,392.11 310.14,293.11 666.53,12.21 963.56,-159.98zm-17892.45 51701.31l-1550.06 0c54.84,-287.27 475.63,-606.19 781.28,-661.04 240.47,-43.16 406.28,52.72 516.62,171.18 79.38,85.21 234.35,324.05 252.16,489.86zm395 -51933.44l-1550.06 0c54.84,287.27 475.63,606.19 781.28,661.04 240.47,43.16 406.28,-52.72 516.62,-171.18 79.38,-85.21 234.35,-324.05 252.16,-489.86zm-18827.71 47712.88c8.2,-7.86 21.27,-29.89 25.83,-22.19 0.75,1.25 217.42,-188.66 372.78,-217.62 210.31,-39.19 346.91,31.85 429.42,176.48 82.19,144.07 76.43,337.83 -9.84,478.33 -145.26,236.57 -121.94,118.62 -127.22,481.92 -6.2,425.97 -358.33,542.36 -707.08,338.26 -269.29,-157.58 -61.32,-219.48 -506.17,-398.88 -741.18,-541.1 -259.58,-935.73 522.29,-836.31zm1434.46 -9489.72c8.2,-7.86 21.27,-29.89 25.83,-22.19 0.75,1.25 217.42,-188.66 372.78,-217.62 210.31,-39.19 346.91,31.85 429.42,176.48 82.19,144.07 76.43,337.83 -9.84,478.33 -145.26,236.57 -121.94,118.62 -127.22,481.92 -6.2,425.97 -358.33,542.36 -707.08,338.26 -269.29,-157.58 -61.32,-219.48 -506.17,-398.88 -741.18,-541.1 -259.58,-935.73 522.29,-836.31zm29719.61 -24438.4c-8.2,-7.86 -21.27,-29.89 -25.83,-22.19 -0.75,1.25 -217.42,-188.66 -372.78,-217.62 -210.31,-39.19 -346.91,31.85 -429.42,176.48 -82.19,144.07 -76.43,337.83 9.84,478.33 145.26,236.57 121.94,118.62 127.22,481.92 6.2,425.97 358.33,542.36 707.08,338.26 269.29,-157.58 61.32,-219.48 506.17,-398.88 741.18,-541.1 259.58,-935.73 -522.29,-836.31zm-2771.61 32605.81c204.86,297.31 -26.08,425.76 439.7,494.53 266.84,39.4 519.94,219.62 352.01,550.89 -62.9,124.08 -173.95,106.48 -340.91,151.2 -2141.04,573.67 -1031.69,-1427.05 -517.34,-1229.41l66.53 32.79zm-24176.39 -24438.4c-204.86,297.31 26.08,425.76 -439.7,494.53 -266.84,39.4 -519.94,219.62 -352.01,550.89 62.9,124.08 173.95,106.48 340.91,151.2 2141.04,573.67 1031.69,-1427.05 517.34,-1229.41l-66.53 32.79zm11471.08 17068.23c204.86,297.31 -26.08,425.76 439.7,494.53 266.84,39.4 519.94,219.62 352.01,550.89 -62.9,124.08 -173.95,106.48 -340.91,151.2 -2141.04,573.67 -1031.69,-1427.05 -517.34,-1229.41l66.53 32.79zm1234.22 -24438.4c-204.86,297.31 26.08,425.76 -439.7,494.53 -266.84,39.4 -519.94,219.62 -352.01,550.89 62.9,124.08 173.95,106.48 340.91,151.2 2141.04,573.67 1031.69,-1427.05 517.34,-1229.41l-66.53 32.79zm-14339.08 33687.05c318.72,462.55 -40.58,662.39 684.09,769.38 415.14,61.3 808.9,341.68 547.65,857.06 -97.85,193.04 -270.63,165.65 -530.38,235.24 -3330.99,892.51 -1605.09,-2220.17 -804.86,-1912.69l103.51 51.01zm423.95 3664.4l-257.53 0c-65.42,-568.96 -834.6,-63 -1034.15,-593.7 -416.77,-1108.34 2956.08,-1387.36 1997.46,-91.68 -218.1,294.77 -127.1,258.19 -141.46,685.39l-564.32 0zm395 -51933.44l-257.53 0c-65.42,568.96 -834.6,63 -1034.15,593.7 -416.77,1108.34 2956.08,1387.36 1997.46,91.68 -218.1,-294.77 -127.1,-258.19 -141.46,-685.39l-564.32 0zm-6811.49 50553.17c525.22,148.73 370.75,112.32 918.26,193.73 593.65,88.28 357.74,831.9 301.17,1186.54l-774.49 0 -216.37 0c-39.65,-170.46 -382.4,-443.61 -499.69,-585.13 -90.82,-109.58 -169.52,-195.33 -214.01,-348.61 -100.01,-344.57 162.41,-537.91 485.13,-446.54zm395 -49172.9c525.22,-148.73 370.75,-112.32 918.26,-193.73 593.65,-88.28 357.74,-831.9 301.17,-1186.54l-774.49 0 -216.37 0c-39.65,170.46 -382.4,443.61 -499.69,585.13 -90.82,109.58 -169.52,195.33 -214.01,348.61 -100.01,344.57 162.41,537.91 485.13,446.54zm10243.84 43755.02c180.37,416.44 742.06,2178.09 -314.35,1480.57 -395.61,-261.2 -213.01,-70.96 -598.63,-158.56 -304.55,-69.18 -378.99,-464.71 -2.75,-649.97 178.27,-87.78 283.38,-1203.81 915.73,-672.04zm18151.34 -24438.4c-180.37,416.44 -742.06,2178.09 314.35,1480.57 395.61,-261.2 213.01,-70.96 598.63,-158.56 304.55,-69.18 378.99,-464.71 2.75,-649.97 -178.27,-87.78 -283.38,-1203.81 -915.73,-672.04zm-30191.73 13049.9l0 -1707.81c167.09,102 48.62,134.31 192.47,307.72 218.03,262.82 941.46,-94.05 992.89,530.63 34.06,413.67 -300.26,364.83 -508.93,523.75 -297.05,226.24 -84.22,379.82 -676.43,345.71zm42232.11 -24438.4l0 -1707.81c-167.09,102 -48.62,134.31 -192.47,307.72 -218.03,262.82 -941.46,-94.05 -992.89,530.63 -34.06,413.67 300.26,364.83 508.93,523.75 297.05,226.24 84.22,379.82 676.43,345.71zm-36200.13 42625.05l-2122.32 0c3.44,-259.66 -77.38,-473.72 55.59,-689.28 429.74,-696.64 1639.48,351.97 2066.72,689.28zm395 -51933.44l-2122.32 0c3.44,259.66 -77.38,473.72 55.59,689.28 429.74,696.64 1639.48,-351.97 2066.72,-689.28zm4558.47 27819.72c-118.35,-49.36 -100.33,-85.18 -179.56,-160.72 -133.89,-127.63 -355.19,-55.73 -322.28,-383.71 253.84,-181.81 318.97,-87.66 500.49,-171.85 44.11,-20.45 115.01,-66.93 166.41,-80.4 153.47,-40.23 254,56.23 259.22,198.29 6.91,188.15 -106.49,151.17 -102.26,377.51 5.07,41.67 7.52,50.68 -3.42,96.22 -8.33,34.68 -1.79,18.47 -16.78,44.47 -61.72,107.1 -167.96,136.02 -301.82,80.2zm1634.87 -24914.78c224.31,-93.55 190.15,-161.46 340.33,-304.63 253.78,-241.93 673.24,-105.64 610.85,-727.28 -481.12,-344.62 -604.57,-166.16 -948.63,-325.74 -83.61,-38.78 -217.99,-126.85 -315.43,-152.39 -290.88,-76.25 -481.42,106.56 -491.32,375.83 -13.1,356.62 201.85,286.54 193.83,715.54 -9.61,78.98 -14.25,96.06 6.49,182.38 15.8,65.73 3.39,35.01 31.79,84.29 116.98,203 318.36,257.82 572.08,152.01zm13561.32 48445.26c68.55,182.21 35.29,392.25 24.26,583.24l-1337.17 0c-80.48,-219.29 -300.41,-302.94 -398.71,-518.35 -249.74,-547.23 256.08,-689.47 689.63,-474.63 438,217.05 837.74,-80 1021.98,409.75zm395 -50766.97c68.55,-182.21 35.29,-392.25 24.26,-583.24l-1337.17 0c-80.48,219.29 -300.41,302.94 -398.71,518.35 -249.74,547.23 256.08,689.47 689.63,474.63 438,-217.05 837.74,80 1021.98,-409.75zm-699.4 33117.06c-204.09,201.24 -569.93,3.07 -902.79,-43.01 -144.53,-25.25 -221.62,-17.1 -334.84,-65.05 -467.59,-198.04 -106.94,-619.72 5.93,-779.84 360.8,-719.53 834.33,-466.71 1348.71,-344.73 209.02,1.83 506.79,44.8 594.32,272.15 190.81,495.77 -388.7,642.32 -711.33,960.47zm-9522.33 -24438.4c204.09,201.24 569.93,3.07 902.79,-43.01 144.53,-25.25 221.62,-17.1 334.84,-65.05 467.59,-198.04 106.94,-619.72 -5.93,-779.84 -360.8,-719.53 -834.33,-466.71 -1348.71,-344.73 -209.02,1.83 -506.79,44.8 -594.32,272.15 -190.81,495.77 388.7,642.32 711.33,960.47zm25877.22 20928.12l0 656.64c-165.02,16.82 -110.58,33.9 -235.26,62.26 -115.96,26.38 -206.1,12.93 -316.62,34.41 -222.07,43.16 -696.53,502.44 -928.03,55.4 -113.28,-218.74 -27.49,-390.11 67.64,-549.62 194.84,-326.69 -94.1,-907.34 577.71,-773.56 389.17,77.5 290.75,435.17 834.57,514.48zm-42232.11 -24438.4l0 656.64c165.02,16.82 110.58,33.9 235.26,62.26 115.96,26.38 206.1,12.93 316.62,34.41 222.07,43.16 696.53,502.44 928.03,55.4 113.28,-218.74 27.49,-390.11 -67.64,-549.62 -194.84,-326.69 94.1,-907.34 -577.71,-773.56 -389.17,77.5 -290.75,435.17 -834.57,514.48zm17039.6 43450.44c-411.31,106.88 -219.65,500.77 -1031.62,64.96 -164,-88.03 -454.27,-223.59 -358.93,-466.07 9.93,-25.26 24.06,-51.7 42.96,-79.37 71.96,-105.36 175.46,-124.95 241.14,-248.48 80.05,-150.55 3.86,-241.53 102.3,-407.51 99.35,-162.5 182.1,-181.8 427.92,-145.67 319.1,239.94 41.39,498.03 459.54,572.9 561.88,100.62 675.16,564.11 116.7,709.23zm8152.91 -24438.4c411.31,106.88 219.65,500.77 1031.62,64.96 164,-88.03 454.27,-223.59 358.93,-466.07 -9.93,-25.26 -24.06,-51.7 -42.96,-79.37 -71.96,-105.36 -175.46,-124.95 -241.14,-248.48 -80.05,-150.55 -3.86,-241.53 -102.3,-407.51 -147.56,-241.34 -472.95,-219.92 -579.09,43.08 -70.15,173.87 0.22,328.91 -308.36,384.16 -561.88,100.62 -675.16,564.11 -116.7,709.23zm-23982.93 19873.02c187.01,-194.71 54.2,-282.7 157.98,-490.32 57.22,-114.46 265.69,-225.86 454.71,-133.51 153.01,74.77 146.11,241.18 206.53,390.56 127.39,314.95 758.82,32.14 695.77,603.03 -79.52,719.83 -2398.17,549.77 -1515,-369.76zm39812.95 -24438.4c-187.01,-194.71 -54.2,-282.7 -157.98,-490.32 -57.22,-114.46 -265.69,-225.86 -454.71,-133.51 -153.01,74.77 -146.11,241.18 -206.53,390.56 -127.39,314.95 -758.82,32.14 -695.77,603.03 79.52,719.83 2398.17,549.77 1515,-369.76zm-7043.21 30199.12c-1326.72,-707.02 228.09,-2249.52 667.73,-2064.21 379.64,179.8 182.38,632.41 497.05,785.84 294.49,143.61 748.07,41.04 906.41,429.58 251.41,616.86 -361.39,697 -528.59,739.38 -701.53,177.82 -257.98,793.91 -1542.61,109.41zm-25904.76 -25561.76c862.9,-459.84 -148.35,-1463.08 -434.29,-1342.55 -246.92,116.94 -118.62,411.32 -323.28,511.11 -191.54,93.4 -486.54,26.69 -589.53,279.4 -163.51,401.21 235.05,453.33 343.79,480.89 456.28,115.65 167.79,516.36 1003.31,71.15zm5076.86 -34.56c343.01,125.4 136.7,354.51 330.74,504.74 128.43,99.43 445.95,39.16 585.44,245.71 164.76,243.95 21.11,474.1 -230.2,527.64 -590.43,125.77 -190.87,537.04 -1160.14,33.95 -172.54,-89.55 -417.33,-217.83 -273.81,-485.74 139.79,-260.93 233.75,-44.47 313.05,-517.96 35.12,-209.71 201.13,-393.82 434.91,-308.35zm12662.34 -22880.18c-343.01,125.4 -136.7,354.51 -330.74,504.74 -128.43,99.43 -445.95,39.16 -585.44,245.71 -164.76,243.95 -21.11,474.1 230.2,527.64 590.43,125.77 190.87,537.04 1160.14,33.95 172.54,-89.55 417.33,-217.83 273.81,-485.74 -139.79,-260.93 -233.75,-44.47 -313.05,-517.96 -35.12,-209.71 -201.13,-393.82 -434.91,-308.35zm-3730.64 45050.9c-188.23,-245.1 130.41,-429.88 217.72,-552.75 120.89,-170.1 37.97,-478.66 262.41,-565.96 377.23,-146.72 403.96,117.19 475.08,333.92 92.27,281.19 295.1,159.45 543.37,285.69 159.29,81 304.79,348.18 140.49,541.91 -124.36,146.63 -319.25,45.7 -559.82,268.92 -225.83,209.54 -315.8,118.33 -550.55,7.06 -189.99,-90.06 -410.61,-165.01 -528.7,-318.79zm-1925.12 -23699.89c188.23,-245.1 -130.41,-429.88 -217.72,-552.75 -120.89,-170.1 -37.97,-478.66 -262.41,-565.96 -377.23,-146.72 -403.96,117.19 -475.08,333.92 -92.27,281.19 -295.1,159.45 -543.37,285.69 -159.29,81 -304.79,348.18 -140.49,541.91 124.36,146.63 319.25,45.7 559.82,268.92 225.83,209.54 315.8,118.33 550.55,7.06 189.99,-90.06 410.61,-165.01 528.7,-318.79zm16298.35 17780.67c111.33,-116.51 15.26,-227.65 136.55,-319.15 131.82,-99.45 242.78,-24.82 278.28,123.42 45.29,189.14 103.32,136.12 265.25,187.07 110.46,34.76 220.38,148.05 135.78,288.79 -68.57,114.07 -189.03,48.08 -300.24,151.56 -141.01,131.21 -152.16,95.99 -333.51,19.47 -323.75,-136.6 -420.55,-201.64 -182.1,-451.16zm-30680.61 -24438.4c-111.33,-116.51 -15.26,-227.65 -136.55,-319.15 -131.82,-99.45 -242.78,-24.82 -278.28,123.42 -45.29,189.14 -103.32,136.12 -265.25,187.07 -110.46,34.76 -220.38,148.05 -135.78,288.79 68.57,114.07 189.03,48.08 300.24,151.56 141.01,131.21 152.16,95.99 333.51,19.47 323.75,-136.6 420.55,-201.64 182.1,-451.16zm20546.88 27893.36c202.63,-212.04 27.79,-414.34 248.52,-580.85 239.93,-181.01 441.87,-45.19 506.48,224.62 82.43,344.22 188.04,247.72 482.76,340.47 201.04,63.27 401.09,269.46 247.12,525.6 -124.81,207.62 -344.03,87.51 -546.44,275.85 -256.63,238.79 -276.92,174.7 -607,35.43 -589.22,-248.61 -765.42,-366.98 -331.44,-821.11zm-10413.15 -24438.4c-202.63,-212.04 -27.79,-414.34 -248.52,-580.85 -239.93,-181.01 -441.87,-45.19 -506.48,224.62 -82.43,344.22 -188.04,247.72 -482.76,340.47 -201.04,63.27 -401.09,269.46 -247.12,525.6 124.81,207.62 344.03,87.51 546.44,275.85 256.63,238.79 276.92,174.7 607,35.43 589.22,-248.61 765.42,-366.98 331.44,-821.11zm21020.85 12037.58c232.17,60.6 1201.58,36.23 697.11,688.58 -265.57,343.42 -32.42,328.38 -162.01,625.31 -93.26,213.68 -411.08,231.35 -534.08,51.95 -177.52,-258.93 -24.7,-328.5 -424.06,-361.26 -264.52,-21.69 -486.96,-71.59 -500.06,-349.57 -14.26,-302.48 241.03,-276.24 401.63,-397 197.89,-148.82 140.95,-357.34 521.47,-258.02zm-31628.55 -24438.4c-232.17,60.6 -1201.58,36.23 -697.11,688.58 265.57,343.42 32.42,328.38 162.01,625.31 93.26,213.68 411.08,231.35 534.08,51.95 177.52,-258.93 24.7,-328.5 424.06,-361.26 264.52,-21.69 486.96,-71.59 500.06,-349.57 14.26,-302.48 -241.03,-276.24 -401.63,-397 -197.89,-148.82 -140.95,-357.34 -521.47,-258.02zm-1242.54 41510.13c429.05,114.39 1187.48,50.27 750.31,667.83 -282.06,398.46 -50.9,377.54 -181.05,666.26 -88.29,195.86 -411.11,271 -548.3,79.81 -196.8,-274.23 7.01,-350.39 -457.33,-369.84 -227.59,-9.53 -459.14,-93.43 -494.04,-338.61 -45.62,-320.6 207.42,-315.56 397.78,-433.88 213.08,-132.44 144.39,-375.09 532.63,-271.58zm3937.52 -9415.81c419.82,111.93 1161.95,49.19 734.18,653.47 -275.99,389.89 -49.8,369.42 -177.16,651.93 -86.39,191.65 -402.27,265.17 -536.52,78.1 -192.56,-268.33 6.86,-342.86 -447.49,-361.89 -222.69,-9.32 -449.27,-91.42 -483.42,-331.32 -44.65,-313.7 202.96,-308.78 389.23,-424.55 208.5,-129.59 141.28,-367.03 521.18,-265.74zm26238.58 -24438.4c-419.82,111.93 -1161.95,49.19 -734.18,653.47 275.99,389.89 49.8,369.42 177.16,651.93 86.39,191.65 402.27,265.17 536.52,78.1 192.56,-268.33 -6.86,-342.86 447.49,-361.89 222.69,-9.32 449.27,-91.42 483.42,-331.32 44.65,-313.7 -202.96,-308.78 -389.23,-424.55 -208.5,-129.59 -141.28,-367.03 -521.18,-265.74zm-24540.83 16780.68c419.82,111.93 1161.95,49.19 734.18,653.47 -275.99,389.89 -49.8,369.42 -177.16,651.93 -86.39,191.65 -402.27,265.17 -536.52,78.1 -192.56,-268.33 6.86,-342.86 -447.49,-361.89 -222.69,-9.32 -449.27,-91.42 -483.42,-331.32 -44.65,-313.7 202.96,-308.78 389.23,-424.55 208.5,-129.59 141.28,-367.03 521.18,-265.74zm22843.08 -24438.4c-419.82,111.93 -1161.95,49.19 -734.18,653.47 275.99,389.89 49.8,369.42 177.16,651.93 86.39,191.65 402.27,265.17 536.52,78.1 192.56,-268.33 -6.86,-342.86 447.49,-361.89 222.69,-9.32 449.27,-91.42 483.42,-331.32 44.65,-313.7 -202.96,-308.78 -389.23,-424.55 -208.5,-129.59 -141.28,-367.03 -521.18,-265.74zm6948.97 38735.02c-151.59,-309.09 52.69,-389.75 266.83,-486.41 421.62,-190.31 31.38,-517.36 1168.9,-233.21 241.94,60.44 374.39,190.07 247.24,450.39 -177.9,364.26 -188.03,86.33 -217.2,608.91 -51.15,916.14 -1452.6,-312.84 -1465.76,-339.69zm-36741.02 -24438.4c151.59,-309.09 -52.69,-389.75 -266.83,-486.41 -421.62,-190.31 -31.38,-517.36 -1168.9,-233.21 -241.94,60.44 -374.39,190.07 -247.24,450.39 177.9,364.26 188.03,86.33 217.2,608.91 51.15,916.14 1452.6,-312.84 1465.76,-339.69zm11233 9195.3c-810.26,23.78 -303.48,-668.62 -304.21,-1069.53 -1.06,-578.66 547.62,-488.46 780.85,-252.76 175.27,177.13 77.32,187.67 386.53,295.54 346.25,120.81 576.65,532.52 142.57,705.09 -240.53,95.62 -328.32,55.02 -572.44,113.86 -176.1,42.44 -286.5,178.44 -433.3,207.81zm14275.02 -24438.4c810.26,23.78 303.48,-668.62 304.21,-1069.53 1.06,-578.66 -547.62,-488.46 -780.85,-252.76 -175.27,177.13 -77.32,187.67 -386.53,295.54 -346.25,120.81 -576.65,532.52 -142.57,705.09 240.53,95.62 328.32,55.02 572.44,113.86 176.1,42.44 286.5,178.44 433.3,207.81zm-25976.1 27149.16c-81.34,140.54 -67.86,183.26 -72.35,312.11 -26,746.38 -3042.59,964.19 -483.52,-785.94 438.21,-299.7 811.5,-55.21 555.87,473.83zm37677.18 -24438.4c81.34,140.54 67.86,183.26 72.35,312.11 26,746.38 3042.59,964.19 483.52,-785.94 -438.21,-299.7 -811.5,-55.21 -555.87,473.83zm-23162.49 27808.59c361.25,-153.71 198.05,-182.45 268.05,-550.38 39.26,-206.39 185.95,-416.22 471.45,-332.91 208.81,60.92 163.4,321.5 349.03,476.57 222.36,185.75 296.47,182.64 185.39,550.58 -61.01,202.09 -46.76,532.89 -160.02,674.65 -246.49,308.5 -481.69,-173.83 -886.41,-176.83 -602.68,-4.48 -626.99,-471.69 -227.48,-641.67zm8647.81 -24438.4c-361.25,-153.71 -198.05,-182.45 -268.05,-550.38 -39.26,-206.39 -185.95,-416.22 -471.45,-332.91 -208.81,60.92 -163.4,321.5 -349.03,476.57 -222.36,185.75 -296.47,182.64 -185.39,550.58 61.01,202.09 46.76,532.89 160.02,674.65 246.49,308.5 481.69,-173.83 886.41,-176.83 602.68,-4.48 626.99,-471.69 227.48,-641.67zm-14972.02 37859.26c80.64,-75.32 229.48,-118.41 578.92,-87.33 80.59,77.8 184.05,139.15 222.66,281.18 52.55,193.35 14.95,242.45 112.38,415.84 147.75,262.99 380.06,247.72 370.83,663.5l-2344.8 0c106.15,-304.3 502.36,-179.27 713.1,-394 188.95,-192.51 83.74,-633.44 346.91,-879.2zm395 -49387.05c80.64,75.32 229.48,118.41 578.92,87.33 80.59,-77.8 184.05,-139.15 222.66,-281.18 52.55,-193.35 14.95,-242.45 112.38,-415.84 147.75,-262.99 380.06,-247.72 370.83,-663.5l-2344.8 0c106.15,304.3 502.36,179.27 713.1,394 188.95,192.51 83.74,633.44 346.91,879.2zm19541.45 46673.54c-17.96,75.95 -126.65,200.57 -159.2,292.38 -73.18,206.44 136.73,828.86 -557.13,690.84 -258.86,-51.49 -302.01,-254.87 -462.15,-371.21 -226.4,-164.49 -346.66,-69.35 -514.72,-313.58 -388.14,-564.09 622.85,-568.54 877.01,-669.79 187.5,-74.69 312.79,-273.97 556.02,-197.65 202.23,63.45 328.55,279.76 260.17,569.01zm-18576.68 -24438.4c17.96,75.95 126.65,200.57 159.2,292.38 73.18,206.44 -136.73,828.86 557.13,690.84 258.86,-51.49 302.01,-254.87 462.15,-371.21 226.4,-164.49 346.66,-69.35 514.72,-313.58 388.14,-564.09 -622.85,-568.54 -877.01,-669.79 -187.5,-74.69 -312.79,-273.97 -556.02,-197.65 -202.23,63.45 -328.55,279.76 -260.17,569.01zm21529.47 15544.12c57.5,171.64 -14.82,285.24 36.39,456.68 80.8,270.5 421.17,317.53 672.17,168 268.37,-159.88 121.96,-277.44 555.8,-421.97 493.5,-164.39 433.15,-714.3 -146.87,-791.49 -168.06,-22.36 -352.31,-8.54 -452.86,-103.24 -209.73,-57.81 -343.33,-253.99 -624.03,-144.82 -434.44,168.98 -104.84,644.95 -40.59,836.84zm-24482.26 -24438.4c-57.5,171.64 14.82,285.24 -36.39,456.68 -80.8,270.5 -421.17,317.53 -672.17,168 -268.37,-159.88 -121.96,-277.44 -555.8,-421.97 -493.5,-164.39 -433.15,-714.3 146.87,-791.49 168.06,-22.36 352.31,-8.54 452.86,-103.24 209.73,-57.81 343.33,-253.99 624.03,-144.82 434.44,168.98 104.84,644.95 40.59,836.84zm23488.95 33946.65c-107.45,646.37 -602.8,409.13 465.94,1514.4 293.25,417.71 117.56,1007.58 -714.63,529.8 -234.03,-134.36 -260.35,31.28 -538.87,-19.33 -356.33,-64.76 -461.5,-423.32 -434.31,-830.31 44.05,-190.75 179.44,-504.21 207.07,-717.89 50.28,-388.8 -123,-522.63 -87.94,-864.78 65.55,-639.82 1289.31,-734.62 1102.74,388.11zm-22495.64 -24438.4c107.45,646.37 602.8,409.13 -465.94,1514.4 -293.25,417.71 -117.56,1007.58 714.63,529.8 234.03,-134.36 260.35,31.28 538.87,-19.33 356.33,-64.76 461.5,-423.32 434.31,-830.31 -44.05,-190.75 -179.44,-504.21 -207.07,-717.89 -50.28,-388.8 123,-522.63 87.94,-864.78 -65.55,-639.82 -1289.31,-734.62 -1102.74,388.11zm29882.42 9699.97c-233.99,210.26 -760.77,935.81 -1097.43,599.62 -157.02,-156.8 -78.32,-483.53 -5.08,-641.04 182.31,-392.08 1.76,-285.63 44.3,-640.03 155.66,-695.85 951.88,-351.49 1467.43,-299.39 434.91,86 784.77,-336.48 1163.83,2.24 159.93,142.91 186.54,300.81 154.55,562.16 -104.73,855.85 -1173.56,-81.38 -1727.6,416.45zm-37269.2 -24438.4c233.99,210.26 760.77,935.81 1097.43,599.62 157.02,-156.8 78.32,-483.53 5.08,-641.04 -182.31,-392.08 -1.76,-285.63 -44.3,-640.03 -155.66,-695.85 -951.88,-351.49 -1467.43,-299.39 -434.91,86 -784.77,-336.48 -1163.83,2.24 -159.93,142.91 -186.54,300.81 -154.55,562.16 104.73,855.85 1173.56,-81.38 1727.6,416.45zm31565.17 42549.58l-2832.72 0c-128.9,-1096.72 798.65,-792.11 1331.57,-682.72 669.64,137.44 1589.71,-583.91 1501.15,682.72zm395 -51933.44l-2832.72 0c-128.9,1096.72 798.65,792.11 1331.57,682.72 669.64,-137.44 1589.71,583.91 1501.15,-682.72zm7790.49 38960.24c-279.99,-105.7 -421.42,-444.22 -542.37,-789.5 -193.52,-552.37 -432.81,-329.43 -733.5,-626.63 -252.48,-249.55 -310.15,-686.68 50.27,-843.14 183.86,-79.82 412.14,-29.56 623.95,-52.78 242.76,-26.61 371.36,-114.07 601.65,-134.78l0 2446.83zm-42232.11 -24438.4c279.99,-105.7 421.42,-444.22 542.37,-789.5 193.52,-552.37 432.81,-329.43 733.5,-626.63 252.48,-249.55 310.15,-686.68 -50.27,-843.14 -183.86,-79.82 -412.14,-29.56 -623.95,-52.78 -242.76,-26.61 -371.36,-114.07 -601.65,-134.78l0 2446.83zm38344.14 34206.3c125.75,122.48 104.42,1561.93 -679.67,1190.55 -62.62,-52.85 -145.17,-144.6 -171.97,-239.15 -90.32,-312.3 -162.13,-568 -416.15,-739.82 -714.43,-355.37 -857.12,-1162.4 -23.46,-1386.9 273.12,-73.56 453.27,-384.45 762.86,-12.69 112.56,135.15 92.62,233.69 101.16,445.58 15.68,389.32 336.35,428.98 427.23,742.45zm-34456.17 -24438.4c-125.75,122.48 -104.42,1561.93 679.67,1190.55 62.62,-52.85 145.17,-144.6 171.97,-239.15 90.32,-312.3 162.13,-568 416.15,-739.82 714.43,-355.37 857.12,-1162.4 23.46,-1386.9 -273.12,-73.56 -453.27,-384.45 -762.86,-12.69 -112.56,135.15 -92.62,233.69 -101.16,445.58 -15.68,389.32 -336.35,428.98 -427.23,742.45zm3590.6 21350.14c215.71,-187.27 759.9,45.23 1038.44,85.63 455.31,66.06 733.64,-240.02 1118.95,-68.1 324.15,144.65 331.61,690.42 112.81,923.07 -7.73,8.23 -1954.44,975.4 -2575.85,790.02 -419.32,-125.09 -55.06,-814.97 -42.21,-897.74 22.25,-143.38 -219.31,-690.32 347.86,-832.89zm26601.93 -24348.16c-155.29,-134.81 -547.06,32.57 -747.58,61.65 -327.78,47.55 -528.16,-172.8 -805.54,-49.03 -233.36,104.13 -238.73,497.03 -81.22,664.53 5.57,5.92 1407.01,702.19 1854.37,568.74 301.87,-90.06 39.64,-586.71 30.39,-646.28 -16.02,-103.22 157.88,-496.97 -250.42,-599.61zm-18697.58 15219.06c957.69,233.69 265.81,1316.53 399.05,1831.8 58.13,224.79 200.06,705.18 -372.92,717.91 -920.26,20.44 -776.85,-1055.12 -1242.44,-1287.79 -137.11,-68.52 -597.51,-165.39 -638.19,-641.85 -40.35,-472.47 353.71,-460.6 750.91,-475.57 415.96,-15.68 702.15,-242.46 1103.6,-144.5zm11466.27 -24438.4c-957.69,233.69 -265.81,1316.53 -399.05,1831.8 -58.13,224.79 -200.06,705.18 372.92,717.91 920.26,20.44 776.85,-1055.12 1242.44,-1287.79 137.11,-68.52 597.51,-165.39 638.19,-641.85 40.35,-472.47 -353.71,-460.6 -750.91,-475.57 -415.96,-15.68 -702.15,-242.46 -1103.6,-144.5zm-18711.5 22128.93c-67.58,41.18 -570.73,42.34 -758.37,97.44 -499.17,146.58 -1060.6,270.29 -1232.45,-403.48 -87.85,-344.44 18.49,-474 91.54,-769.5 102.4,-414.25 -62.99,-596.83 -58.35,-851.25 5.98,-327.31 312.64,-391.32 638.67,-368.26 115.83,86.67 349.71,112.3 549.95,458.74 131.86,228.15 166.08,552.51 340.54,713.09 219.89,202.38 399.33,75.99 631.68,425.45 195.54,294.08 133.59,597.34 -203.21,697.77zm25956.73 -24438.4c67.58,41.18 570.73,42.34 758.37,97.44 499.17,146.58 1060.6,270.29 1232.45,-403.48 87.85,-344.44 -18.49,-474 -91.54,-769.5 -102.4,-414.25 62.99,-596.83 58.35,-851.25 -5.98,-327.31 -312.64,-391.32 -638.67,-368.26 -115.83,86.67 -349.71,112.3 -549.95,458.74 -131.86,228.15 -166.08,552.51 -340.54,713.09 -219.89,202.38 -399.33,75.99 -631.68,425.45 -195.54,294.08 -133.59,597.34 203.21,697.77zm-32837.43 19661.63c28.64,90.46 139.52,169.76 172.86,331.93 34.8,169.25 -367.15,1530.13 -391.33,1556.93 -387.78,429.87 -1029.06,-206.11 -1038.52,-211.41l0 -1418.61c658.55,-30.47 547.31,-504.47 1256.99,-258.85zm39718.14 -24438.4c-28.64,90.46 -139.52,169.76 -172.86,331.93 -34.8,169.25 367.15,1530.13 391.33,1556.93 387.78,429.87 1029.06,-206.11 1038.52,-211.41l0 -1418.61c-658.55,-30.47 -547.31,-504.47 -1256.99,-258.85zm-24686.47 35927.17c-81.81,76.8 -105.57,302.31 -199.35,435.82 -146.88,209.11 -702.15,334.15 -785.87,304.48 -131.96,-46.74 -236.43,-245.31 -66.99,-466.47 134.52,-175.59 290.16,-286.64 298.23,-529.83 29.91,-902.07 1138.96,-1292.2 753.99,256zm9654.81 -24438.4c81.8,76.8 105.56,302.31 199.34,435.82 146.88,209.11 702.15,334.14 785.87,304.48 131.96,-46.74 236.42,-245.31 67,-466.47 -134.53,-175.59 -290.17,-286.64 -298.24,-529.83 -29.91,-902.07 -1138.96,-1292.21 -753.98,256zm12062.53 26625.42c-40.13,-167.31 -322.41,-370.32 -428.97,-596.67 -166.9,-354.52 88.5,-1189.05 191.63,-1278.02 162.52,-140.22 506.36,-128.49 672.17,265.23 131.64,312.59 161.27,604.27 479.04,799.8 1178.68,725.28 855.56,2498.82 -913.88,809.66zm-33779.88 -24438.4c40.13,-167.31 322.41,-370.32 428.97,-596.67 166.9,-354.52 -88.5,-1189.05 -191.63,-1278.02 -162.52,-140.22 -506.36,-128.49 -672.17,265.23 -131.64,312.59 -161.27,604.27 -479.04,799.8 -1178.68,725.28 -855.56,2498.82 913.88,809.66zm38006 24170.02l0 1124.84c-66.3,94.87 -27.4,33.75 -53.29,172.11 -29.23,156.13 -33.54,326.41 -246.63,430.48 -776.87,379.42 -201.13,-704.23 -1123.58,-762.75 -269.04,-16.37 -490.87,-200.74 -468.25,-521.26 28.87,-408.97 322.44,-293.73 578.31,-413.38 244.82,-114.49 315.73,-398.54 613.55,-326.09 257.58,62.67 443.27,210.75 699.89,296.06zm-42232.11 -24438.4l0 1124.84c66.3,94.87 27.4,33.75 53.29,172.11 29.23,156.13 33.54,326.41 246.63,430.48 776.87,379.42 201.13,-704.23 1123.58,-762.75 269.04,-16.37 490.87,-200.74 468.25,-521.26 -28.87,-408.97 -322.44,-293.73 -578.31,-413.38 -244.82,-114.49 -315.73,-398.54 -613.55,-326.09 -257.58,62.67 -443.27,210.75 -699.89,296.06zm7201.06 7627.16c260.52,183.23 91.68,519.92 373.38,630.63 253.67,99.68 597.93,37.92 699.96,326.37 142.42,402.68 -87.31,536.99 -395.38,592.38 -564.83,101.58 -199.55,714.15 -1413.7,13.53 -212.89,-122.86 -490.23,-284.85 -289.77,-587.86 192.17,-290.45 330.94,-139.54 388.37,-629.78 37.82,-322.94 338.65,-555.2 637.14,-345.27zm27829.99 -24438.4c-260.52,183.23 -91.68,519.92 -373.38,630.63 -253.67,99.68 -597.93,37.92 -699.96,326.37 -142.42,402.68 87.31,536.99 395.38,592.38 564.83,101.58 199.55,714.15 1413.7,13.53 212.89,-122.86 490.23,-284.85 289.77,-587.86 -192.17,-290.45 -330.94,-139.54 -388.37,-629.78 -37.82,-322.94 -338.65,-555.2 -637.14,-345.27zm-7056.57 49590.65c-462.24,223.29 -1202.23,219.23 -1340.57,760.51l2823.08 0c111.74,-501.91 936.91,-366.84 1200.15,-1178.47 145.82,-449.57 -101.1,-610.77 -492.53,-635.08 -880.61,-54.69 -1454.44,697.67 -2190.13,1053.04zm1276.44 -50552.81c376.92,-182.08 980.31,-178.77 1093.12,-620.12l-2301.98 0c-91.1,409.26 -763.97,299.12 -978.62,960.94 -118.9,366.58 82.44,498.03 401.61,517.85 718.06,44.6 1185.97,-568.89 1785.87,-858.67zm-24985.36 32751.85c75.45,-26.71 201.11,-103.73 258.5,-179.14 157.66,-207.11 204.71,-434.94 541.02,-418.83 360.28,17.26 382.89,234.24 423.03,393.81 21.77,86.56 62.91,115.39 90.88,175.22 77.94,166.71 -44.26,300.93 -165.18,346.62 -190.92,72.16 -229.45,-61.58 -433.91,106.04 -92.27,75.64 -189.4,192.9 -330.29,235.97 -159.87,48.87 -594.21,-39.78 -686.53,-82.32 -463.41,-213.53 84.43,-500.15 302.48,-577.36zm33700.98 -24438.4c-75.45,-26.71 -201.11,-103.73 -258.5,-179.14 -157.66,-207.11 -204.71,-434.94 -541.02,-418.83 -360.28,17.26 -382.89,234.24 -423.03,393.81 -21.77,86.56 -62.91,115.39 -90.88,175.22 -77.94,166.71 44.26,300.93 165.18,346.62 190.92,72.16 229.45,-61.58 433.91,106.04 92.27,75.64 189.4,192.9 330.29,235.97 159.87,48.87 594.21,-39.78 686.53,-82.32 463.41,-213.53 -84.43,-500.15 -302.48,-577.36zm-15346.12 29754.08c115.8,-41 308.66,-159.22 396.76,-274.95 241.97,-317.88 314.18,-667.56 830.35,-642.83 552.97,26.5 587.67,359.53 649.27,604.43 33.42,132.84 96.55,177.11 139.48,268.93 119.62,255.87 -67.93,461.86 -253.51,531.98 -293.03,110.74 -352.15,-94.51 -665.98,162.75 -141.62,116.1 -290.69,296.07 -506.93,362.16 -245.37,75.01 -911.99,-61.04 -1053.68,-126.34 -711.25,-327.73 129.58,-767.63 464.24,-886.14zm-3008.74 -24438.4c-115.8,-41 -308.66,-159.22 -396.76,-274.95 -241.97,-317.88 -314.18,-667.56 -830.35,-642.83 -552.97,26.5 -587.67,359.53 -649.27,604.43 -33.42,132.84 -96.55,177.11 -139.48,268.93 -119.62,255.87 67.93,461.86 253.51,531.98 293.03,110.74 352.15,-94.51 665.98,162.75 141.62,116.1 290.69,296.07 506.93,362.16 245.37,75.01 911.99,-61.04 1053.68,-126.34 711.25,-327.73 -129.58,-767.63 -464.24,-886.14zm18749.75 37684.19l-2518.6 0c-24.11,-62.72 -469.78,-490.51 92.53,-857.83 405.43,-264.84 637.39,-87.48 1096.47,-249.16 359.66,-126.66 727.58,-211.91 1022.87,66.7 174.17,164.33 115.5,295.73 157.3,527.64 44.84,248.74 150.41,267.14 149.44,512.64zm395 -51933.44l-2518.6 0c-24.11,62.72 -469.78,490.51 92.53,857.83 405.43,264.84 637.39,87.48 1096.47,249.16 359.66,126.66 727.58,211.91 1022.87,-66.7 174.17,-164.33 115.5,-295.73 157.3,-527.64 44.84,-248.74 150.41,-267.14 149.44,-512.64zm-3681.05 28012.24c-142.1,-28.88 -197.26,-47.27 -359.4,-69.91 -882.3,-123.21 -355.03,-554.67 -267.83,-743.36 382.8,-828.4 879.34,-535.08 1171.72,-158.09 551.08,710.55 -296.79,1021.71 -544.49,971.36zm-27701.41 -24799.06c142.1,-28.88 197.26,-47.27 359.4,-69.91 882.3,-123.21 355.03,-554.67 267.83,-743.36 -133.26,-288.39 123.44,-302.17 -176.43,-631.37 -682.05,-162.13 -238.7,408.61 -791.94,425.67 -739.56,22.81 -524.38,522.57 -434.46,599.33 143.02,122.13 590.01,457.37 775.6,419.64zm6316.09 31228.7c305.53,140.79 202.29,471.46 462.46,554.14 316.97,100.72 599.61,-67.67 806.9,250.72 210.34,323.07 -4.83,518.81 -287.87,627.39 -349.41,134.03 -334.88,421.34 -585.59,460.94 -132.68,20.96 -620.8,-122.6 -853.46,-153.88 -292.51,-39.33 -544.11,-190.9 -395.89,-528.5 135.36,-308.3 316.69,-282.14 302.72,-741.56 -15.15,-498.05 352.44,-560.63 550.74,-469.27zm14851.98 -24438.4c-305.53,140.79 -202.29,471.46 -462.46,554.14 -316.97,100.72 -599.61,-67.67 -806.9,250.72 -210.34,323.07 4.83,518.81 287.87,627.39 349.41,134.03 334.88,421.34 585.59,460.94 132.68,20.96 620.8,-122.6 853.46,-153.88 292.51,-39.33 544.11,-190.9 395.89,-528.5 -135.36,-308.3 -316.69,-282.14 -302.72,-741.56 15.15,-498.05 -352.44,-560.63 -550.74,-469.27zm13009.7 25012.29c151.26,4.97 296.07,1.06 414.9,49.63 164.76,67.37 117.57,126.19 265.46,196.83l0 426.04c-125.92,60.68 -103.58,93.62 -209.12,141.28 -113.26,51.15 -184.43,44.26 -274.21,108.8 -430.8,309.69 -24.66,497.3 -1009.71,302.63 -117.46,-23.21 -151.59,-40.61 -308.21,-62.22 -407.74,-56.28 -506.95,-320.33 -300.51,-654.25 124.14,-200.8 236.48,-259.68 231.28,-535.44 -26.32,-1397.14 987.74,20.05 1190.12,26.7zm-40871.39 -24438.4c-151.26,4.97 -296.07,1.06 -414.9,49.63 -164.76,67.37 -117.57,126.19 -265.46,196.83l0 426.04c125.92,60.68 103.58,93.62 209.12,141.28 113.26,51.15 184.43,44.26 274.21,108.8 430.8,309.69 24.66,497.3 1009.71,302.63 117.46,-23.21 151.59,-40.61 308.21,-62.22 407.74,-56.28 506.95,-320.33 300.51,-654.25 -124.14,-200.8 -236.48,-259.68 -231.28,-535.44 26.32,-1397.14 -987.74,20.05 -1190.12,26.7zm14754.57 32773.18c-52.74,293.71 -404.97,312.49 -457.59,677.44 -46.35,321.46 -108.29,615.23 -508.47,575.87 -419.37,-41.26 -296.34,-453.45 -455.82,-650.89 -136.77,-169.33 -576.07,-104.02 -778.21,-312.53 -229.6,-236.84 -156.27,-635.41 180.35,-708.8 554.67,-120.95 424.59,-287.04 696.87,-389.34 216.93,-81.51 1394.47,409.56 1322.88,808.25zm11362.25 -24438.4c52.74,293.71 404.97,312.49 457.59,677.44 46.35,321.46 108.29,615.23 508.47,575.87 419.37,-41.26 296.34,-453.45 455.82,-650.89 136.77,-169.33 576.07,-104.02 778.21,-312.53 229.6,-236.84 156.27,-635.41 -180.35,-708.8 -554.67,-120.95 -424.59,-287.04 -696.87,-389.34 -216.93,-81.51 -1394.47,409.56 -1322.88,808.25zm-21296.64 27651.13c-775.4,148.82 -2742.58,775.73 -1802.42,-759.38 200.86,-327.95 30.12,-427.05 110.3,-795.89 321.3,-1096.98 1432.1,212.68 1625.27,295.97 160.29,69.12 616.15,134.09 733.45,584.69 123.5,474.42 -332.48,609.97 -666.6,674.61zm31508.19 -25349.03c775.4,148.82 2742.58,775.73 1802.42,-759.38 -200.86,-327.95 -30.12,-427.05 -110.3,-795.89 -321.3,-1096.98 -1432.1,212.68 -1625.27,295.97 -160.29,69.12 -616.15,134.09 -733.45,584.69 -123.5,474.42 332.48,609.97 666.6,674.61zm-18598.92 27222.24c-98.92,-290.33 31.02,-691.05 253.13,-812.87 132.6,-72.73 268.44,-45.16 431.43,-136.78 771.27,-433.53 600.89,543.82 742.5,744.42 122,172.83 416.66,369.35 438.5,692.36 11.57,171.19 -110.41,851.5 -176.83,966.95 -84.3,146.54 -498.15,310.01 -706.63,-167.24 -126.81,-290.29 -172.36,-566.85 -388.39,-736.67 -249.42,-196.05 -475.41,-202.98 -593.69,-550.18zm5412.51 -24438.4c98.92,-290.33 -31.02,-691.05 -253.13,-812.87 -132.6,-72.73 -268.44,-45.16 -431.43,-136.78 -771.27,-433.53 -600.89,543.82 -742.5,744.42 -122,172.83 -416.66,369.35 -438.5,692.36 -11.57,171.19 110.41,851.5 176.83,966.95 84.3,146.54 498.15,310.01 706.63,-167.24 126.81,-290.29 172.36,-566.85 388.39,-736.67 249.42,-196.05 475.41,-202.98 593.69,-550.18zm-13440.2 25868.21c-157.19,-248.95 -194.8,-583.67 -369.15,-782.26 -128.84,-146.76 -163.2,-135.79 -328.86,-238.09 -357.33,-220.65 -501.56,-589.7 -313.31,-987.11 142.32,-300.45 257.43,-206.5 543.51,-323.66 240.93,-98.67 359.57,-283.79 612.83,-58.51 253.93,225.87 66.38,392.96 174.41,658.08 168.77,414.16 627.55,392.6 464.73,1145.61 -48.76,225.5 -73.75,540.06 -204.27,664.71 -172.78,165.01 -454.96,98.91 -579.89,-78.77zm21467.9 -24438.4c157.19,-248.95 194.8,-583.67 369.15,-782.26 128.84,-146.76 163.2,-135.79 328.86,-238.09 357.33,-220.65 501.56,-589.7 313.31,-987.11 -142.32,-300.45 -257.43,-206.5 -543.51,-323.66 -240.93,-98.67 -359.57,-283.79 -612.83,-58.51 -253.93,225.87 -66.38,392.96 -174.41,658.08 -168.77,414.16 -627.55,392.6 -464.73,1145.61 48.76,225.5 73.75,540.06 204.27,664.71 172.78,165.01 454.96,98.91 579.89,-78.77zm-30531.93 985.22c444.77,184.59 123.84,518.9 330.53,803.17 166.75,229.32 410.02,359.41 449.04,685.15 22.19,185.27 -98.12,822.29 -165.25,971.84 -79.73,177.61 -485.25,328.86 -715.43,-132.95 -144.8,-290.52 -154.07,-553.34 -383.52,-745.46 -233.35,-195.38 -462.63,-205.45 -599.62,-524.69 -125.73,-292.96 19.8,-669.14 203.68,-810.21 118.83,-91.16 749.31,-301.33 880.57,-246.85zm21421.18 -25000.55c-444.77,184.59 -123.84,518.9 -330.53,803.17 -166.75,229.32 -410.02,359.41 -449.04,685.15 -22.19,185.27 98.12,822.29 165.25,971.84 79.73,177.61 485.25,328.86 715.43,-132.95 144.8,-290.52 154.07,-553.34 383.52,-745.46 233.35,-195.38 462.63,-205.45 599.62,-524.69 125.73,-292.96 -19.8,-669.14 -203.68,-810.21 -118.83,-91.16 -749.31,-301.33 -880.57,-246.85zm9056.06 13.65c-402.48,216.87 -104.49,501.78 -321.42,815.21 -175.46,253.51 -398.42,373.24 -447.61,669.29 -29.99,180.5 105.13,758.25 171.63,923.75 136.33,339.28 569.81,237.31 714.39,-60.3 143.45,-295.29 142.67,-554.51 373.94,-760.23 153.23,-136.3 480.14,-243.17 607.86,-522.69 127.99,-280.1 -3.25,-714.95 -218.46,-847.51 -116.55,-71.8 -279.9,-68.94 -429.08,-138.48 -166.24,-77.5 -223.05,-202 -451.26,-79.03zm6615.93 25889.01c55.94,280.32 -41.88,506.09 -101.5,730.64 -61.87,233.04 -93.1,472.91 -403.26,445.11 -453.23,-40.62 -428.41,-697.75 -693.58,-993.91 -150.52,-168.12 -326.49,-192.01 -501.41,-363.81 -605,-594.18 1.73,-983.69 479.29,-1184.28 724.23,-304.24 1109.46,810.02 1220.46,1366.24zm-34590.4 -24438.4c-55.94,280.32 41.88,506.09 101.5,730.64 61.87,233.04 93.1,472.91 403.26,445.11 453.23,-40.62 428.41,-697.75 693.58,-993.91 150.52,-168.12 326.49,-192.01 501.41,-363.81 605,-594.18 -1.73,-983.69 -479.29,-1184.28 -724.23,-304.24 -1109.46,810.02 -1220.46,1366.24zm19416.75 33850.89c-1006.98,-118.74 -774.13,-1286.26 -533.49,-1787.61 594.04,-1237.6 744.92,-883.07 1239.59,-453.66 259.85,268.85 428.36,77.59 706.21,224.95 231.7,122.87 292.46,368.1 214.99,652.17 -92.03,139.11 -156.34,189 -361.8,241.33 -80.42,20.49 -159.62,37.73 -232.05,65.38 -477.53,182.28 -161.15,1391.66 -1033.45,1057.42zm-4243.1 -24438.4c1006.98,-118.74 774.13,-1286.26 533.49,-1787.61 -594.04,-1237.6 -744.92,-883.07 -1239.59,-453.66 -259.85,268.85 -428.36,77.59 -706.21,224.95 -231.7,122.87 -292.46,368.1 -214.99,652.17 92.03,139.11 156.34,189 361.8,241.33 80.42,20.49 159.62,37.73 232.05,65.38 477.53,182.28 161.15,1391.66 1033.45,1057.42zm7367.99 24845.3c-37.73,-471.87 213.72,-624.49 240.03,-980.21 46.33,-626.25 -727.85,-910.59 -993.04,-1427.51 -153.72,-299.66 -94.4,-661.34 307.83,-669.26 467.93,-9.21 610,251.72 897.5,213.01 175.74,-23.65 312.8,-88.95 516.1,-18.13 334.36,116.51 460.35,488.27 447.26,810.79 -8.15,200.67 -73.72,406.73 -119.25,599.5 -166.58,705.36 -120.09,518.38 56.43,1139.5 306.54,1078.61 -1234.11,1235.26 -1352.88,332.3zm-10492.89 -24438.4c37.73,-471.87 -213.72,-624.49 -240.03,-980.21 -46.33,-626.25 727.85,-910.59 993.04,-1427.51 153.72,-299.66 94.4,-661.34 -307.83,-669.26 -467.93,-9.21 -610,251.72 -897.5,213.01 -175.74,-23.65 -312.8,-88.95 -516.1,-18.13 -334.36,116.51 -460.35,488.27 -447.26,810.79 8.15,200.67 73.72,406.73 119.25,599.5 166.58,705.36 120.09,518.38 -56.43,1139.5 -306.54,1078.61 1234.11,1235.26 1352.88,332.3zm-5539.39 29785.91c-98.5,-196.51 23.02,-810.86 79.86,-1012.79 101.24,-359.65 498.72,-443.72 710.58,-161.79 159.18,211.82 191.9,551.9 369.42,799.59 158.74,221.47 467.9,266.48 645.48,521.7 186.21,267.62 133.37,666.52 -59.18,892.83 -129.18,151.84 -225.97,141.19 -413.74,190.21 -202.68,52.91 -512.18,381.02 -789.97,-43.56 -103.07,-157.53 -29.33,-322.53 -59.02,-505.66 -32.43,-200.07 -372.08,-458.38 -483.43,-680.52zm21571.68 -24438.4c98.5,-196.51 -23.02,-810.86 -79.86,-1012.79 -101.24,-359.65 -498.72,-443.72 -710.58,-161.79 -159.18,211.82 -191.9,551.9 -369.42,799.59 -158.74,221.47 -467.9,266.48 -645.48,521.7 -186.21,267.62 -133.37,666.52 59.18,892.83 129.18,151.84 225.97,141.19 413.74,190.21 202.68,52.91 512.18,381.02 789.97,-43.56 103.07,-157.53 29.33,-322.53 59.02,-505.66 32.43,-200.07 372.08,-458.38 483.43,-680.52zm-1434.89 28132.36c-15.48,108.83 -171.5,275.03 -263.87,323.51 -145.3,76.26 -363.75,12.07 -545.15,67.16 -356.95,108.41 -378.2,821.57 -1740.4,351.25 -343.25,-118.51 -236.44,-544.05 -9.06,-708.53 218.44,-158.02 588.2,-161.68 824.72,-384.42 224.96,-211.85 224.31,-489.82 548.02,-654.97 282.78,-144.25 701.83,-16.96 860.55,176.63 139.54,170.19 77.02,237.92 159.14,440.68 43.43,107.25 180.69,285.77 166.06,388.69zm-18701.89 -24438.4c15.48,108.83 171.5,275.03 263.87,323.51 145.3,76.26 363.75,12.07 545.15,67.16 356.95,108.41 378.2,821.57 1740.4,351.25 343.25,-118.51 236.44,-544.05 9.06,-708.53 -218.44,-158.02 -588.2,-161.68 -824.72,-384.42 -224.96,-211.85 -224.31,-489.82 -548.02,-654.97 -282.78,-144.25 -701.83,-16.96 -860.55,176.63 -139.54,170.19 -77.02,237.92 -159.14,440.68 -43.43,107.25 -180.69,285.77 -166.06,388.69zm12890.49 20166.83c-137.97,-159.51 -479.28,-397.53 -367.57,-752.52 82.91,-263.46 476.9,-368.59 722.71,-433.79 333.89,-88.57 396.21,-354.9 699.88,-585.81 208.37,-158.43 884.34,-20 720.64,640.16 -180.27,726.99 152.71,570.38 467.27,998.92 268.84,366.26 81.8,937.37 -412.71,921.8 -304.67,-9.59 -294.62,-163.16 -676.29,-105.97 -770.06,115.4 -608.97,-52.74 -1153.94,-682.79zm-7079.08 -24438.4c137.97,-159.51 479.28,-397.53 367.57,-752.52 -82.91,-263.46 -476.9,-368.59 -722.71,-433.79 -333.89,-88.57 -396.21,-354.9 -699.88,-585.81 -208.37,-158.43 -884.34,-20 -720.64,640.16 180.27,726.99 -152.71,570.38 -467.27,998.92 -268.84,366.26 -81.8,937.37 412.71,921.8 304.67,-9.59 294.62,-163.16 676.29,-105.97 770.06,115.4 608.97,-52.74 1153.94,-682.79zm20824.79 22144.67c-145.78,166.49 -577.68,85.3 -842.27,89.84 -448.73,7.7 -808.02,238.21 -1127.35,-119.95 -342.61,-384.19 -10.93,-624.83 -524.77,-1081.7l-26.98 -31.9c-1026.4,-235.29 -1099.75,-1651.99 269.85,-1095.59 278.52,113.15 821.81,571.65 1234.59,772.91 365.03,177.99 1000.6,174.27 1224.36,769.33 108.27,287.91 41.94,600.42 -207.42,697.06zm-34570.49 -24438.4c145.78,166.49 577.68,85.3 842.27,89.84 448.73,7.7 808.02,238.21 1127.35,-119.95 342.61,-384.19 10.93,-624.83 524.77,-1081.7l26.98 -31.9c1026.4,-235.29 1099.75,-1651.99 -269.85,-1095.59 -278.52,113.15 -821.81,571.65 -1234.59,772.91 -365.03,177.99 -1000.6,174.27 -1224.36,769.33 -108.27,287.91 -41.94,600.42 207.42,697.06zm18217.57 17672.54c295.59,47.38 1205.93,-445.18 1285.81,294.13 23.91,221.26 6.65,366.06 -108.35,510.19 -268.93,337.06 -675.24,125.28 -842.06,59.56 -859.75,-338.72 -947.96,623.31 -1517.62,759.28 -362.07,86.42 -1016.2,-1975.59 1182.21,-1623.16zm-1864.64 -24438.4c-295.59,47.38 -1205.93,-445.18 -1285.81,294.13 -23.91,221.26 -6.65,366.06 108.35,510.19 268.93,337.06 675.24,125.28 842.06,59.56 859.75,-338.72 947.96,623.31 1517.62,759.28 362.07,86.42 1016.2,-1975.59 -1182.21,-1623.16zm-7867.17 24310.2c438.27,69.41 645.63,205.4 1074.58,68.2 1123.73,-359.45 1111.24,1000.93 399.86,1038.96 -450.91,24.09 -667.25,-320.61 -1058.51,-150.51 -319.4,138.85 -639.57,807.79 -1054.32,823.44 -494.32,18.64 -343.38,-516.52 -222.69,-792.32 151.06,-345.22 -201.62,-670.46 322.04,-952.79 157.89,-85.13 363.39,-62.78 539.04,-34.97zm17598.98 -24438.4c-438.27,69.41 -645.63,205.4 -1074.58,68.2 -1123.73,-359.45 -1111.24,1000.93 -399.86,1038.96 450.91,24.09 667.25,-320.61 1058.51,-150.51 319.4,138.85 639.57,807.79 1054.32,823.44 494.32,18.64 343.38,-516.52 222.69,-792.32 -151.06,-345.22 201.62,-670.46 -322.04,-952.79 -157.89,-85.13 -363.39,-62.78 -539.04,-34.97zm-20734.25 27096.54c-211.39,523.31 -62.5,218.78 -78.38,657.83 -30.51,843.57 -1342.15,353.67 -1563.66,335.51 -394.96,-32.39 -1427.14,640.81 -1272.71,-697.66 158.31,-179.56 273.09,-382.25 734.73,-271.15 258.07,62.11 508.86,302.28 850.8,111.59 42.17,-23.51 1995.86,-1786.44 1329.23,-136.13zm23869.51 -24438.4c211.39,523.31 62.5,218.78 78.38,657.83 30.51,843.57 1342.15,353.67 1563.66,335.51 394.96,-32.39 1427.14,640.81 1272.71,-697.66 -158.31,-179.56 -273.09,-382.25 -734.73,-271.15 -258.07,62.11 -508.86,302.28 -850.8,111.59 -42.17,-23.51 -1995.86,-1786.44 -1329.23,-136.13zm5883.92 26897.44c-159.91,-44.68 -370.45,-202.52 -503.86,-197.66 -231.21,8.45 -316.89,123.75 -555.55,-63.05 -510.99,-399.97 49.48,-1283.86 10.2,-1678.02 -33.16,-332.8 337.72,-2150.57 978.31,-783.83 314.56,671.13 -749.2,801.95 188.97,1736.39 442.55,440.78 651.88,1201.34 -118.07,986.16zm-35637.36 -24438.4c159.91,-44.68 370.45,-202.52 503.86,-197.66 231.21,8.45 316.89,123.75 555.55,-63.05 510.99,-399.97 -49.48,-1283.86 -10.2,-1678.02 33.16,-332.8 -337.72,-2150.57 -978.31,-783.83 -314.56,671.13 749.2,801.95 -188.97,1736.39 -442.55,440.78 -651.88,1201.34 118.07,986.16zm33959.58 22341.65c-180.8,367.73 13.44,274.54 -26.41,603.97 -91.31,754.73 -1203.95,335.04 -1591.84,318.41 -2593.13,-111.13 -1064.5,-1097.99 -537.72,-988.11 315.05,65.72 542.82,323.08 902.21,90.86 339.69,-219.51 578.55,-735.56 956.02,-784.82 497.2,-64.86 452.77,444.37 297.74,759.69zm-32281.8 -24438.4c180.8,367.73 -13.44,274.54 26.41,603.97 91.31,754.73 1203.95,335.04 1591.84,318.41 2593.13,-111.13 1064.5,-1097.99 537.72,-988.11 -315.05,65.72 -542.82,323.08 -902.21,90.86 -339.69,-219.51 -578.55,-735.56 -956.02,-784.82 -497.2,-64.86 -452.77,444.37 -297.74,759.69zm-802.01 15012.57c202.22,-219.82 584.7,-178.5 765.18,-66.92 310.42,191.93 277.78,560.96 125.22,882.95 -463.29,977.77 669.93,1069.62 680.72,1757.67 3.74,238.36 -112.65,324.3 -356.04,320.38 -256.33,-4.13 -316.07,-68.69 -498.36,-161.71 -332.53,-169.68 -657.42,219.46 -922.7,-357.17 -149.51,-325 13.65,-671.64 108.42,-1002.19 207,-722.08 -295.77,-916.23 97.57,-1373.02zm33885.83 -24438.4c-202.22,-219.82 -584.7,-178.5 -765.18,-66.92 -310.42,191.93 -277.78,560.96 -125.22,882.95 463.29,977.77 -669.93,1069.62 -680.72,1757.67 -3.74,238.36 112.65,324.3 356.04,320.38 256.33,-4.13 316.07,-68.69 498.36,-161.71 332.53,-169.68 657.42,219.46 922.7,-357.17 149.51,-325 -13.65,-671.64 -108.42,-1002.19 -207,-722.08 295.77,-916.23 -97.57,-1373.02zm-5050.68 26779.89c-152.49,-29.46 -261.57,-126.1 -361.19,-145.41 -675.78,-131 -856.93,-25.01 -554.24,-1039.17 126.82,-424.86 -92.16,-537.77 -24.33,-864.54 110.17,-530.67 1149.55,-370.36 794.5,410.29 -152.62,335.55 -171.21,475.21 63.01,733.61 84.84,93.58 161.18,163.63 243.3,253.39 259.39,283.49 360.05,752.5 -161.05,651.84zm-23725.72 -25293.23c152.49,-29.46 261.57,-126.1 361.19,-145.41 675.78,-131 856.93,-25.01 554.24,-1039.17 -126.82,-424.86 92.16,-537.77 24.33,-864.54 -110.17,-530.67 -1149.55,-370.36 -794.5,410.29 152.62,335.55 171.21,475.21 -63.01,733.61 -84.84,93.58 -161.18,163.63 -243.3,253.39 -259.39,283.49 -360.05,752.5 161.05,651.84zm2391.33 34460.28c-184.42,-62.77 -282.38,-180.79 -480.96,-166.94 -221.07,15.4 -299.41,106.38 -507.94,-54.28 -378.69,-291.74 -303.07,-559.82 -178.52,-997.18 306.76,-1077.17 9.44,-662.59 41.83,-1314.68 34.89,-702.59 1003.2,-589.97 1116.23,-104.74 108.84,467.25 -217.61,633.2 -237.22,976.44 -26.33,460.74 490.81,664.21 741.47,1087.38 232.6,392.65 -25.75,733.71 -494.9,574.01zm18884.3 -24438.4c184.42,-62.77 282.38,-180.79 480.96,-166.94 221.07,15.4 299.41,106.38 507.94,-54.28 378.69,-291.74 303.07,-559.82 178.52,-997.18 -306.76,-1077.17 -9.44,-662.59 -41.83,-1314.68 -34.89,-702.59 -1003.2,-589.97 -1116.23,-104.74 -108.84,467.25 217.61,633.2 237.22,976.44 26.33,460.74 -490.81,664.21 -741.47,1087.38 -232.6,392.65 25.75,733.71 494.9,574.01zm-11525.07 37325.4c88.97,176.72 115.5,372.66 155.16,557.85 108.39,506.09 644.98,396.52 759.1,668.77l-2159.23 0c-12.3,-119.19 -419.66,-46.33 -768.29,-348.72 -361.08,-313.18 -646.34,-1270.55 607.75,-1144.08 559.45,56.41 1085,-370.42 1405.51,266.18zm395 -49480.2c88.97,-176.72 115.5,-372.66 155.16,-557.85 108.39,-506.09 644.98,-396.52 759.1,-668.77l-2159.23 0c-12.3,119.19 -419.66,46.33 -768.29,348.72 -361.08,313.18 -646.34,1270.55 607.75,1144.08 559.45,-56.41 1085,370.42 1405.51,-266.18zm9717.31 26558.15c-146.03,-73.31 -311.52,50.22 -423.4,-115.55 -99.34,-147.19 -31.75,-262.88 125.36,-338.14 343.8,-164.69 19.52,-334.4 267.69,-544.56 51.31,-43.45 133.25,-75.35 216.95,-51.6 165.97,47.09 122.19,215.35 228.26,311.17 258.88,233.84 383.35,1139.43 -414.86,738.69zm-19748.41 -22896.65c146.03,-73.31 311.52,50.22 423.4,-115.55 99.34,-147.19 31.75,-262.88 -125.36,-338.14 -343.8,-164.69 -19.52,-334.4 -267.69,-544.56 -51.31,-43.45 -133.25,-75.35 -216.95,-51.6 -165.97,47.09 -122.19,215.35 -228.26,311.17 -258.88,233.84 -383.35,1139.43 414.86,738.69zm31840.33 18116.21c592.46,-148 737.25,271.16 994.74,383.13l0 -1690.75c-360.98,20.03 -766.81,247.04 -1156.31,148.29 -358.69,-90.94 -626.35,-276.08 -1068.14,-146.55 -327.13,95.91 -505.49,434.76 -464.34,868.61 104.52,1101.72 1172.29,567.59 1694.04,437.27zm-26240.96 27660.82c446.56,-42.61 423.94,-56.3 883.41,-8.18 77.53,21.16 108.54,43.98 171.81,87.38l129.04 92.08c67.84,40.52 2.85,13.47 60.79,29.33 67.67,162.29 148.14,267.05 163.14,500.59 16.38,254.96 78.08,348.15 113.5,567.11l-3646.6 0c-38.64,-547.69 199.87,-825.77 696.92,-993.47 257.96,-87.04 513.52,-57.38 805.53,-77.57 177.83,-12.3 420.41,-66.81 572.75,-157.14 66.34,-39.34 44.31,-33.51 49.72,-40.12zm395 -49396.83c446.56,42.61 423.94,56.3 883.41,8.18 77.53,-21.16 108.54,-43.98 171.81,-87.38l129.04 -92.08c67.84,-40.52 2.85,-13.47 60.79,-29.33 67.67,-162.29 148.14,-267.05 163.14,-500.59 16.38,-254.96 78.08,-348.15 113.5,-567.11l-3646.6 0c-38.64,547.69 199.87,825.77 696.92,993.47 257.96,87.04 513.52,57.38 805.53,77.57 177.83,12.3 420.41,66.81 572.75,157.14 66.34,39.34 44.31,33.51 49.72,40.12zm19599.38 32259.87c213.73,145.65 216.56,287.64 321.27,535.46 143.92,340.63 247.25,194.71 469.21,384.6 158.39,135.51 271.15,471.78 4.98,590.52 -202.55,90.36 -198.2,-31.57 -730.16,121.21 -594.63,170.8 -858.15,-181.51 -679.02,-831.43 71.6,-259.79 -160.71,-1328.12 613.71,-800.37zm-27749.47 -24438.4c-213.73,145.65 -216.56,287.64 -321.27,535.46 -143.92,340.63 -247.25,194.71 -469.21,384.6 -158.39,135.51 -271.15,471.78 -4.98,590.52 202.55,90.36 198.2,-31.57 730.16,121.21 594.63,170.8 858.15,-181.51 679.02,-831.43 -71.6,-259.79 160.71,-1328.12 -613.71,-800.37zm33442.42 22996.56c-106.27,152.85 -231.37,185.74 -484.98,174.85 -161.29,-6.92 -359.95,-47.63 -507.85,-125.13 -306.69,-160.7 -658.58,-484.98 -972.71,-646.51 -322.67,-166.03 -715.94,-218.35 -971.04,-381.49 -179.34,-114.69 -390.27,-309.54 -424.4,-564.91 -111.38,-833.66 1176.48,-781.87 1784.58,-725.06 617.44,57.71 519.79,816.09 659.03,1044.14 111.77,183.08 497.2,290.81 681.66,445.47 113.68,95.32 462.01,569.98 235.71,778.63zm-39135.38 -24438.4c106.27,152.85 231.37,185.74 484.98,174.85 161.29,-6.92 359.95,-47.63 507.85,-125.13 306.69,-160.7 658.58,-484.98 972.71,-646.51 322.67,-166.03 715.94,-218.35 971.04,-381.49 179.34,-114.69 390.27,-309.54 424.4,-564.91 115.37,-863.56 -705.04,-636.94 -1330.17,-685.77 -104.99,-55.39 -321.56,-51.7 -454.4,-39.29 -617.44,57.71 -519.79,816.09 -659.03,1044.14 -111.77,183.08 -497.2,290.81 -681.66,445.47 -113.68,95.32 -462.01,569.98 -235.71,778.63zm21960.17 24402.67c-199.39,30.99 -375.8,-18.68 -486.28,-119.44 -519.38,-473.65 30.93,-1047.62 93.04,-1257.02 103.3,-348.26 -60.94,-1502.33 1035.44,-889.7 296.11,165.46 302.5,448.87 679.32,595.57 150.03,58.42 625.73,141.56 684.89,614.52 -348.83,955.12 -1040.9,906.03 -2006.42,1056.07zm-4784.97 -24438.4c199.39,30.99 375.8,-18.68 486.28,-119.44 519.38,-473.65 -30.93,-1047.62 -93.04,-1257.02 -103.3,-348.26 60.94,-1502.33 -1035.44,-889.7 -296.11,165.46 -302.5,448.87 -679.32,595.57 -150.03,58.42 -625.73,141.56 -684.89,614.52 348.83,955.12 1040.9,906.03 2006.42,1056.07zm-6704.19 22239.95c450.92,177.22 358.93,526.44 496.96,943.99 99.49,300.99 609.93,340.78 832.88,636.68 279.42,370.85 308.1,814.54 -313.87,812.08 -874.98,-3.46 -1181.18,-751.17 -1968.66,-944.55 -1349.05,-331.3 -1147.47,-1383.46 -442.19,-1434.84 234.68,-17.1 464.83,25.68 715.26,-0.93 226.76,-24.09 459.48,-98.97 679.63,-12.45zm18193.35 -24438.4c-450.92,177.22 -358.93,526.44 -496.96,943.99 -99.49,300.99 -609.93,340.78 -832.88,636.68 -279.42,370.85 -308.1,814.54 313.87,812.08 874.98,-3.46 1181.18,-751.17 1968.66,-944.55 1349.05,-331.3 1147.47,-1383.46 442.19,-1434.84 -234.68,-17.1 -464.83,25.68 -715.26,-0.93 -226.76,-24.09 -459.48,-98.97 -679.63,-12.45zm-8327.95 25654.71c246.34,125.7 372.34,140.7 575.05,407.59 502.03,660.96 -232.09,1144.92 -1188.98,473.21 -659.63,-463.03 -837.39,-484.38 -1490.85,-764.12 -101.04,-42 -192.93,-80.7 -294.63,-164.09 -152.84,-125.32 -323.76,-352.31 -317.63,-630.15 13.11,-594.44 2205.08,-945.81 2372.29,126.35 44.61,285.98 88.75,420.55 344.75,551.19zm-1537.45 -24438.4c-246.34,125.7 -372.34,140.7 -575.05,407.59 -502.03,660.96 232.09,1144.92 1188.98,473.21 659.63,-463.03 837.39,-484.38 1490.85,-764.12 101.04,-42 192.93,-80.7 294.63,-164.09 152.84,-125.32 323.76,-352.31 317.63,-630.15 -13.11,-594.44 -2205.08,-945.81 -2372.29,126.35 -44.61,285.98 -88.75,420.55 -344.75,551.19zm-5327.81 21632.08c132.33,310.07 -14.58,539.05 -187.55,696.01 -484.79,439.91 -895.75,161.15 -1494.4,390.73 -422.69,162.11 -1046.81,271.51 -1330.31,-249.45 -428.65,-787.67 168.53,-2142.15 873.22,-2373.47 461.19,-41.85 612.23,215.17 1117.73,227.91 367.03,9.26 501.55,116.7 530.66,454.57 55.1,639.52 288.61,380.2 490.66,853.69zm12100.71 -24846.65c-132.33,310.07 14.58,539.05 187.55,696.01 484.79,439.91 895.75,161.15 1494.4,390.73 422.69,162.11 1046.81,271.51 1330.31,-249.45 428.65,-787.67 -168.53,-2142.15 -873.22,-2373.47 -461.19,-41.85 -612.23,215.17 -1117.73,227.91 -367.03,9.26 -501.55,116.7 -530.66,454.57 -55.1,639.52 -288.61,380.2 -490.66,853.69zm-16259.02 34959.24c652.61,287.29 825.22,1173.23 130.66,1321.04 -179.89,38.29 -372.55,9.42 -556.33,5.98 -480.17,-9 -1050.22,270.36 -1327.08,-256.61 -141.79,-269.84 -75.28,-656.12 -289.42,-844.21 -215.31,-189.11 -505.77,-216.8 -694.78,-435.82 -517.7,-599.88 -212.12,-941.46 466.98,-885.18 200.3,16.59 330.37,69.3 478.89,162.91 1084.95,683.73 682.79,444.01 1791.08,931.89zm20509.69 -24438.4c-652.61,287.29 -825.22,1173.23 -130.66,1321.04 179.89,38.29 372.55,9.42 556.33,5.98 480.17,-9 1050.22,270.36 1327.08,-256.61 141.79,-269.84 75.28,-656.12 289.42,-844.21 215.31,-189.11 505.77,-216.8 694.78,-435.82 517.7,-599.88 212.12,-941.46 -466.98,-885.18 -200.3,16.59 -330.37,69.3 -478.89,162.91 -1084.95,683.73 -682.79,444.01 -1791.08,931.89zm-6023.27 32009.06c-92.69,496.31 133.56,544.36 157.38,945.04 22.95,386.19 -103.13,646.62 -471.72,734.58 -376.53,89.85 -692.76,-63.11 -829.25,-292.91 -179.63,-302.44 -11.23,-710.98 91.05,-977.32 112.84,-293.82 117.82,-683.4 -152.46,-833.6 -156.63,-302.73 -555.33,-459.67 -761.72,-840.78 -91.84,-169.62 -120.75,-496.22 54.8,-609.42 10.28,-16.47 2438.24,-943.76 1911.92,1874.41zm-8463.15 -24438.4c92.69,496.31 -133.56,544.36 -157.38,945.04 -22.95,386.19 103.13,646.62 471.72,734.58 376.53,89.85 692.76,-63.11 829.25,-292.91 179.63,-302.44 11.23,-710.98 -91.05,-977.32 -337.1,-877.77 579.89,-1057.09 914.18,-1674.37 91.84,-169.62 120.75,-496.22 -54.8,-609.42 -10.28,-16.47 -2438.24,-943.76 -1911.92,1874.41zm24687.83 28862.32c-127.67,55.5 -445.32,11.65 -641.47,50.57 -201.15,39.91 -401.52,147.11 -582.23,188.78 -349.01,58.2 -687.59,1.85 -895.41,-186.38 -271.29,-245.72 -147.28,-509.67 -269.24,-857.6 -166.66,-475.46 -108.23,-536.77 220.66,-752.83 575.25,-377.9 294.8,-222.7 460.66,-601.6 72.98,-234.39 336.34,-425.74 689.33,-318.31 384.91,117.14 292.98,176.47 812.35,206.88 811.72,47.51 222.44,843.42 865.13,1130.32l0 844.02c-247.39,80.53 -255.26,260.04 -659.8,296.15zm-40912.52 -24438.4c127.67,55.5 445.32,11.65 641.47,50.57 201.15,39.91 401.52,147.11 582.23,188.78 349.01,58.2 687.59,1.85 895.41,-186.38 271.29,-245.72 147.28,-509.67 269.24,-857.6 166.66,-475.46 108.23,-536.77 -220.66,-752.83 -575.25,-377.9 -294.8,-222.7 -460.66,-601.6 -72.98,-234.39 -336.34,-425.74 -689.33,-318.31 -384.91,117.14 -292.98,176.47 -812.35,206.88 -811.72,47.51 -222.44,843.42 -865.13,1130.32l0 844.02c247.39,80.53 255.26,260.04 659.8,296.15zm221.62 24337.06c-442.63,-300.86 -487.1,-501.73 -881.42,-505.45l0 -498.08 0 -917.45 0 -521.14 0 -1352.69 0 -338.06c360.98,20.03 766.81,247.04 1156.31,148.29 358.69,-90.94 626.35,-276.08 1068.14,-146.55 327.13,95.91 505.49,434.76 464.34,868.61 -147.07,1550.33 815.31,1619.18 337.01,2122.55 -304.24,320.19 -436.97,225.48 -871.9,785.71 -309.31,406.88 -764.33,699.66 -1272.47,354.26zm40469.28 -24176.53c442.63,-300.86 487.1,-501.73 881.42,-505.45l0 -1415.53c-496.67,-10.76 -884.59,-24.65 -1275.4,-210.77 -411.5,-195.97 -657.77,-326.83 -1210.87,-298.42 -617.79,121.99 -1042.01,761.38 -539.52,1290.21 304.24,320.19 436.97,225.48 871.9,785.71 309.31,406.88 764.33,699.66 1272.47,354.26zm-1273.93 -21855.26c186.98,98.85 498.79,639.23 1116.91,373.86 184.28,-79.11 340.93,-199.27 476.63,-312.35 217.92,-181.59 236.05,-253.51 561.81,-267.22l0 -1409.68c-1059.23,-22.36 -1445.67,-466.32 -2107.04,-514.97 -498.73,-36.68 -1111.83,122.38 -1118.05,757.11 -7.53,768.02 990.25,857.21 1069.74,1373.25zm2155.35 23438.82l0 825.59c-208.54,81.11 -319.26,326.91 -827.18,337.75 -921.54,19.67 -1334.23,508.9 -1925.31,47.36 -662.25,-517.1 -475.45,-2757.4 1603.65,-2359.4 235.73,45.13 463.65,-10.07 625.59,128.35 168.29,143.85 107.33,385.21 173.64,631.95 24.79,92.25 235.71,342.43 349.61,388.39zm-42232.11 -24438.4l0 825.59c208.54,81.11 319.26,326.91 827.18,337.75 921.54,19.67 1334.23,508.9 1925.31,47.36 176.41,-137.74 526.57,-1252.05 251.67,-1498.75 -151.03,-135.54 -357.34,-214.64 -466.67,-324.07 -661.75,-662.3 358.37,-871.02 -1388.65,-536.59 -235.73,45.13 -463.65,-10.07 -625.59,128.35 -168.29,143.85 -107.33,385.21 -173.64,631.95 -24.79,92.25 -235.71,342.43 -349.61,388.39zm14361.4 44896.25c317.88,114.47 240.37,460.74 278.73,631.42l73.59 124.49c61.89,153.06 28.86,89.64 143.01,216.11 144.03,159.56 323.56,325.59 310.93,571.95 -15.51,302.33 -337.67,542.16 -592.37,642.34 -322.15,126.7 -705.71,39.2 -1058.76,147.46 -157.83,48.4 -239.88,132.08 -441.83,152.32 -755.59,75.73 -978.75,-174.26 -1051.85,-782.14 -73.69,-612.71 -506.55,-598.18 331.67,-1133.23 216.74,-138.34 191.67,-160.09 249.96,-403.21 153.95,-642.09 1303.91,-330.63 1756.93,-167.5zm13509.32 -24438.4c-317.88,114.47 -240.37,460.74 -278.73,631.42l-73.59 124.49c-61.89,153.06 -28.86,89.64 -143.01,216.11 -144.03,159.56 -323.56,325.59 -310.93,571.95 15.51,302.33 337.67,542.16 592.37,642.34 322.15,126.7 705.71,39.2 1058.76,147.46 157.83,48.4 239.88,132.08 441.83,152.32 755.59,75.73 978.75,-174.26 1051.85,-782.14 73.69,-612.71 506.55,-598.18 -331.67,-1133.23 -216.74,-138.34 -191.67,-160.09 -249.96,-403.21 -153.95,-642.09 -1303.91,-330.63 -1756.93,-167.5zm2264.01 20224.01c-577.6,-265.83 -538.75,-755.44 -1427.15,-710.53 -68.45,3.46 -641.65,19.28 -603.25,-27.32 -412.15,-86.08 -671.58,-445.57 -542.49,-938.21 150.81,-575.47 460.51,-609.33 754.39,-721.07 368,-139.91 1571.14,-2260.86 2170.58,-743.13 306.76,776.71 1386.68,3633.33 -352.08,3140.26zm-18037.33 -24438.4c577.6,-265.83 538.75,-755.44 1427.15,-710.53 68.45,3.46 641.65,19.28 603.25,-27.32 412.15,-86.08 671.58,-445.57 542.49,-938.21 -150.81,-575.47 -460.51,-609.33 -754.39,-721.07 -368,-139.91 -1571.14,-2260.86 -2170.58,-743.13 -306.76,776.71 -1386.68,3633.33 352.08,3140.26zm11445.14 22379.8c-137.55,301.31 0.27,699.41 -242.4,856.1 -196.13,126.63 -399.16,1.25 -593,159.07 -242.44,197.36 -504.76,606.05 -935.84,169.22 -141.47,-143.37 -405.67,-1284.52 -439.43,-1596.7 -18.63,-172.21 -11.92,-355.65 33.33,-505.47 45.24,-149.8 141.56,-242.67 254.45,-309.06 157.34,-92.53 232.02,-56.73 439.86,-84.01 328.3,-43.12 463.21,-339.52 755.36,77.56 491.06,701.06 1099.63,418.44 727.67,1233.3zm-4852.94 -24438.4c137.55,301.31 -0.27,699.41 242.4,856.1 196.13,126.63 399.16,1.25 593,159.07 242.44,197.36 504.76,606.05 935.84,169.22 141.47,-143.37 405.67,-1284.52 439.43,-1596.7 18.63,-172.21 11.92,-355.65 -33.33,-505.47 -45.24,-149.8 -141.56,-242.67 -254.45,-309.06 -157.34,-92.53 -232.02,-56.73 -439.86,-84.01 -328.3,-43.12 -463.21,-339.52 -755.36,77.56 -491.06,701.06 -1099.63,418.44 -727.67,1233.3zm8711.89 9506.6c-4.07,450.56 1028.95,955.2 330.74,1735.76 -199.79,223.36 -573.94,379.19 -673.08,602.69 -122.34,275.8 37.01,697.78 -164.56,1117.18 -91.94,191.28 -368.6,590.34 -688.13,508.7 -275.27,-70.32 -457.13,-503.32 -516.25,-769.34 -146.08,-657.26 256.14,-1583.65 142.75,-2369.54 -32.67,-247.03 -144.29,-569.45 -28.44,-940.05 194.6,-622.44 757.71,-910.75 1207.3,-529.85 265.05,224.56 218.32,452.14 389.68,644.46zm-12570.84 -24438.4c4.07,450.56 -1028.95,955.2 -330.74,1735.76 199.79,223.36 573.94,379.19 673.08,602.69 122.34,275.8 -37.01,697.78 164.56,1117.18 91.94,191.28 368.6,590.34 688.13,508.7 275.27,-70.32 457.13,-503.32 516.25,-769.34 146.08,-657.26 -256.14,-1583.65 -142.75,-2369.54 32.67,-247.03 144.29,-569.45 28.44,-940.05 -194.6,-622.44 -757.71,-910.75 -1207.3,-529.85 -265.05,224.56 -218.32,452.14 -389.68,644.46zm11416.59 48510.72c-283.68,-145.45 -445.76,-526.83 -514.83,-877.16 -85.48,-433.66 200.44,-1651.76 109.24,-2570.35 -131.31,-1322.56 892.47,-1591.98 1337.63,-1072.06 187.89,219.44 288.23,674.15 480.37,949.62 179.31,257.07 517.65,588.07 330.28,1059.29 -140.15,352.47 -411.28,455.04 -720.87,712.51 -305.75,254.28 -99.35,755.16 -248.38,1186.26 -98.32,284.43 -383.45,671.26 -773.44,611.88zm-10262.33 -24438.4c283.68,-145.45 445.76,-526.83 514.83,-877.16 85.48,-433.66 -200.44,-1651.76 -109.24,-2570.35 131.31,-1322.56 -892.47,-1591.98 -1337.63,-1072.06 -187.89,219.44 -288.23,674.15 -480.37,949.62 -179.31,257.07 -517.65,588.07 -330.28,1059.29 140.15,352.47 411.28,455.04 720.87,712.51 305.75,254.28 99.35,755.16 248.38,1186.26 98.32,284.43 383.45,671.26 773.44,611.88zm8173.46 22514.78c97.26,66.86 288.7,287.16 380.68,400.09 449.23,551.62 -128.99,1146.76 -709.61,1243.29 -227.33,37.79 -500.76,23.22 -705.29,52.23 -297.92,42.25 -367.98,90.11 -584.4,165.64 -423.04,147.66 -934.57,80.97 -1193.88,-188.16 -110.6,-114.79 -534.47,-1382.64 -275.9,-1623.75 661.18,-616.59 254.01,-190.04 835.57,-1009.03 345.56,-486.62 803.93,-120.54 1369.79,-6.86 150.24,30.18 399.11,16.42 534.55,66.75 323.23,120.1 302.82,501.77 348.49,899.78zm-6361.74 -23804.91c-97.26,66.86 -288.7,287.16 -380.68,400.09 -449.23,551.62 128.99,1146.76 709.61,1243.29 227.33,37.79 500.76,23.22 705.29,52.23 297.92,42.25 367.98,90.11 584.4,165.64 423.04,147.66 934.57,80.97 1193.88,-188.16 110.6,-114.79 534.47,-1382.64 275.9,-1623.75 -661.18,-616.59 -254.01,-190.04 -835.57,-1009.03 -345.56,-486.62 -803.93,-120.54 -1369.79,-6.86 -150.24,30.18 -399.11,16.42 -534.55,66.75 -323.23,120.1 -302.82,501.77 -348.49,899.78zm-8317.35 2755.11c441.03,161.3 831.8,510.82 486.74,1141.85 -229.83,420.3 -652.39,506.02 -633.84,1183.98 16.46,601.84 14.65,1116.53 -565.02,1236.87 -568.39,118.01 -961.45,-289.26 -1079.7,-706.61 -148.25,-523.24 -577.86,-518.33 -923.07,-892.26 -273.22,-295.93 -516.45,-821.38 8.61,-1154.48 441.93,-280.36 1060.55,-146.58 1375.61,-431.23 293.84,-265.47 700.24,-608.7 1330.68,-378.12zm23273.58 -24438.4c-441.03,161.3 -831.8,510.82 -486.74,1141.85 229.83,420.3 652.39,506.02 633.84,1183.98 -16.46,601.84 -14.65,1116.53 565.02,1236.87 568.39,118.01 961.45,-289.26 1079.7,-706.61 148.25,-523.24 577.86,-518.33 923.07,-892.26 273.22,-295.93 516.45,-821.38 -8.61,-1154.48 -441.93,-280.36 -1060.55,-146.58 -1375.61,-431.23 -293.84,-265.47 -700.24,-608.7 -1330.68,-378.12zm2916.38 28410.18c-283.71,-0.14 -504.06,-116.33 -653.94,-256.16 -241,-224.84 -183.05,-280.32 -310.33,-593.51 -153.71,-378.21 -669.85,-483.96 -957.81,-851.15 -375.92,-479.34 -251.73,-915.54 217.16,-1139.74 599.44,-286.62 844.64,11.87 1352.66,-456.51 853.35,-786.77 2367.11,-92.77 1645.8,971.02 -330.37,487.23 -592.88,381.28 -564.3,1227.07 21.1,624.18 -115.51,1099.29 -729.25,1098.98zm-29264.72 -24834.32c283.71,-0.14 504.06,-116.33 653.94,-256.16 241,-224.84 183.05,-280.32 310.33,-593.51 153.71,-378.21 669.85,-483.96 957.81,-851.15 375.92,-479.34 251.73,-915.54 -217.16,-1139.74 -599.44,-286.62 -844.64,11.87 -1352.66,-456.51 -853.35,-786.77 -2367.11,-92.77 -1645.8,971.02 330.37,487.23 592.88,381.28 564.3,1227.07 -21.1,624.18 115.51,1099.29 729.25,1098.98zm12090.93 22736.24c-161.95,325.06 162.44,2404.9 -1254.51,1592.27 -534.17,-306.35 -322.04,-513.24 -593.21,-869.47 -230.02,-302.18 -562.18,-361.88 -819.12,-652.08 -251.72,-284.3 -412.91,-708.24 -103.79,-1033.82 271.5,-285.94 688.36,-281.01 1122.45,-348.23 406.25,-62.91 509.4,-404.77 913.63,-557.02 433.45,-163.25 918.46,-24.41 1174.71,186.73 722.55,595.35 -210.29,1220.21 -440.17,1681.62zm5241.24 -24438.4c161.95,325.06 -162.44,2404.9 1254.51,1592.27 534.17,-306.35 322.04,-513.24 593.21,-869.47 230.02,-302.18 562.18,-361.88 819.12,-652.08 251.72,-284.3 412.91,-708.24 103.79,-1033.82 -271.5,-285.94 -688.36,-281.01 -1122.45,-348.23 -406.25,-62.91 -509.4,-404.77 -913.63,-557.02 -433.45,-163.25 -918.46,-24.41 -1174.71,186.73 -722.55,595.35 210.29,1220.21 440.17,1681.62zm-21783.93 26058.45c147.29,-324.49 465.72,-632.94 510,-903.63 59.58,-88.55 42.33,-179.77 14.69,-301.77 -19.38,-350.14 -18.71,-597.82 174.97,-813.56 259.46,-289.02 910.74,-474.98 1229.65,173.76 245.87,500.17 29.79,160.06 327.76,620.8 5782.73,1307.71 -3390.06,3720.27 -2257.07,1224.4zm38326.62 -24438.4c-147.29,-324.49 -465.72,-632.94 -510,-903.63 -59.58,-88.55 -42.33,-179.77 -14.69,-301.77 19.38,-350.14 18.71,-597.82 -174.97,-813.56 -259.46,-289.02 -910.74,-474.98 -1229.65,173.76 -245.87,500.17 -29.79,160.06 -327.76,620.8 -5782.73,1307.71 3390.06,3720.27 2257.07,1224.4zm1952.74 32659.09l0 950.36c-405.33,121.34 -111.33,231.29 -1093.69,322.84 -632.08,58.9 -774.18,791.59 -1649.23,644.28 -257.39,-43.33 -462.64,-121.62 -615.13,-263.09 -406.37,-377.01 -198.36,-883.16 141.22,-1260.48 477.39,-530.46 395.42,-495.95 414.48,-1344.32 6.91,-307.54 68.16,-522.65 241.56,-675.29 273.55,-240.8 739.13,-209.24 1036.68,-22.78 667.65,418.4 40.66,637.01 1032.51,1228.59 219.18,130.72 341.27,339.46 491.61,419.89zm-42232.11 -24438.4l0 950.36c405.33,121.34 111.33,231.29 1093.69,322.84 632.08,58.9 774.18,791.59 1649.23,644.28 257.39,-43.33 462.64,-121.62 615.13,-263.09 406.37,-377.01 198.36,-883.16 -141.22,-1260.48 -477.39,-530.46 -395.42,-495.95 -414.48,-1344.32 -6.91,-307.54 -68.16,-522.65 -241.56,-675.29 -273.55,-240.8 -739.13,-209.24 -1036.68,-22.78 -667.65,418.4 -40.66,637.01 -1032.51,1228.59 -219.18,130.72 -341.27,339.46 -491.61,419.89zm22598.41 11019.1c938.91,436.66 1048.49,107.29 1353.07,386.19 205.83,188.47 93.29,434.45 178.56,693.63 97.13,295.22 1184.47,985.07 103.05,1602.9 -596.26,340.65 -709.68,78.72 -1365.7,256.85 -221.58,60.17 -875.49,401.04 -1398.3,38.71 -172.08,-119.25 -282.52,-267.11 -303.91,-567.4 -23.1,-324.35 -92.32,-407.41 -185.57,-670.41 -206.11,-581.25 507.7,-671.4 717.3,-950.55 153.64,-204.62 40.64,-391.69 255.38,-613.22 110.96,-114.47 397.91,-292.14 646.14,-176.7zm-2964.71 -24438.4c-938.91,436.66 -1048.49,107.29 -1353.07,386.19 -205.83,188.47 -93.29,434.45 -178.56,693.63 -97.13,295.22 -1184.47,985.07 -103.05,1602.9 596.26,340.65 709.68,78.72 1365.7,256.85 221.58,60.17 875.49,401.04 1398.3,38.71 172.08,-119.25 282.52,-267.11 303.91,-567.4 23.1,-324.35 92.32,-407.41 185.57,-670.41 206.11,-581.25 -507.7,-671.4 -717.3,-950.55 -153.64,-204.62 -40.64,-391.69 -255.38,-613.22 -110.96,-114.47 -397.91,-292.14 -646.14,-176.7zm-7450.82 37686.26c66.75,-266.38 1.85,-572.18 19.21,-854.84 22.9,-372.73 128.91,-596.31 470.53,-735.45 267.12,-86.9 649.61,-18.75 873.52,152.06 417.06,318.17 251.62,578.03 541.51,888.63 242.48,259.78 539.25,317.13 791.28,602.48 216.43,245.05 419.68,700.56 123.75,1024.91 -226.28,248.01 -598.95,333.28 -1025.78,364.31 -523.91,38.1 -579.65,313.43 -920.37,512.89 -347,203.13 -808.93,195.04 -1186.65,16.11 -1205.74,-571.15 198.99,-1516.22 312.98,-1971.11zm17866.35 -24438.4c-66.75,-266.38 -1.85,-572.18 -19.21,-854.84 -7.48,-121.79 -33.43,-287.19 -78.26,-381.77l-173.61 -264.62 -218.65 -89.06c-267.12,-86.9 -649.61,-18.75 -873.52,152.06 -417.06,318.17 -251.62,578.03 -541.51,888.63 -242.48,259.78 -539.25,317.13 -791.28,602.48 -216.43,245.05 -419.68,700.56 -123.75,1024.91 226.28,248.01 598.95,333.28 1025.78,364.31 523.91,38.1 579.65,313.43 920.37,512.89 347,203.13 808.93,195.04 1186.65,16.11 1205.74,-571.15 -198.99,-1516.22 -312.98,-1971.11zm-12394.5 30931.52c-40.14,146.01 -335.04,414.22 -498.89,464.39 -274.16,83.97 -605.99,-50.19 -853,94.34 -330.1,193.14 -673.69,699.53 -1129.41,782.81 -361.03,65.98 -609.69,-18.96 -899.03,-67.06 -524.32,-87.18 -1188.11,-163.95 -1089.73,-820.95 84.8,-566.35 786.74,-667.69 1117.65,-804.52 777.92,-321.68 655.12,-533.49 973.78,-952.58 660.31,-868.41 1589.72,-526.93 1908.6,-135.51 149.79,183.88 139.69,492.07 241.58,742.54 81.89,201.32 318.63,368.48 228.45,696.53zm6922.65 -24438.4c40.14,146.01 335.04,414.22 498.89,464.39 274.16,83.97 605.99,-50.19 853,94.34 330.1,193.14 673.69,699.53 1129.41,782.81 361.03,65.98 609.69,-18.96 899.03,-67.06 524.32,-87.18 1188.11,-163.95 1089.73,-820.95 -84.8,-566.35 -786.74,-667.69 -1117.65,-804.52 -777.92,-321.68 -655.12,-533.49 -973.78,-952.58 -660.31,-868.41 -1589.72,-526.93 -1908.6,-135.51 -149.79,183.88 -139.69,492.07 -241.58,742.54 -81.89,201.32 -318.63,368.48 -228.45,696.53zm-3760.21 16506.74c-230.23,-205.42 -525.94,-356.18 -841.93,-320.77 -227.19,25.46 -493.78,78.11 -698.37,-25.7 -482.38,-181.66 -557.17,-328 -529.89,-914.03 56.44,-313.78 279.08,-596.55 540.34,-686.17 942.45,-323.3 583.24,-650.73 1192.89,-1099.55 547.92,-403.35 1056.46,-234.71 1263.22,491.31 106.97,375.61 -13.66,551.2 177.95,879.98 243.31,417.45 768.74,690.34 475.34,1527.88 -345.92,987.47 -1051.72,617.99 -1579.55,147.05zm597.76 -24438.4c230.23,-205.42 525.94,-356.18 841.93,-320.77 227.19,25.46 493.78,78.11 698.37,-25.7 482.38,-181.66 557.17,-328 529.89,-914.03 -56.44,-313.78 -279.08,-596.55 -540.34,-686.17 -942.45,-323.3 -583.24,-650.73 -1192.89,-1099.55 -547.92,-403.35 -1056.46,-234.71 -1263.22,491.31 -106.97,375.61 13.66,551.2 -177.95,879.98 -243.31,417.45 -768.74,690.34 -475.34,1527.88 345.92,987.47 1051.72,617.99 1579.55,147.05zm-1884.16 19504.49c442.91,291.39 521.85,884.48 67.35,1236.39 -630.77,410.19 -1873.72,1459.84 -2229,1485.1 -1043.62,74.18 -1337.31,-813.84 -1502.67,-1650.63 -85.13,-430.78 -315.58,-755.17 -557.35,-991.76 -953.74,-933.32 593.08,-1896.27 1718.55,-1075.58 1360.84,992.27 1890.41,593.37 2503.13,996.47zm3170.56 -24438.4c-442.91,291.39 -521.85,884.48 -67.35,1236.39 630.77,410.19 1873.72,1459.84 2229,1485.1 1043.62,74.18 1337.31,-813.84 1502.67,-1650.63 85.13,-430.78 315.58,-755.17 557.35,-991.76 953.74,-933.32 -593.08,-1896.27 -1718.55,-1075.58 -1360.84,992.27 -1890.41,593.37 -2503.13,996.47zm9984.2 29170.21c58.85,311.64 -2.45,517.25 -164.48,682.69 -151.24,154.42 -303.12,210.16 -564.25,293.46 -685.95,218.77 -453.04,1108.94 -1584.88,714.48 -259.48,-90.43 -1074.02,-217.48 -1378.48,-239.43 32.4,214.47 164.26,366.21 38.82,638.76 -188.75,410.11 -1830.53,421.9 -1918.59,346.39 -504.7,-149.66 -432.21,-727.32 -552.84,-1004.98 -666.08,-212.23 -1202.27,-2064.07 131.83,-1306.48 339.37,205.02 654.81,470.62 998.63,662.7 67.34,37.62 937.82,338.45 940.71,338.74 -3.74,-136.32 -32.31,-152.78 -37.29,-264.73 -12.84,-288.76 214.26,-639.52 381.36,-861.66 179.11,-238.11 280.25,-327.01 218.76,-700.56 -99.22,-602.79 176.37,-1046.83 718.11,-1071.7 716.51,-32.9 643.13,536.16 923.19,920.8 232.51,319.33 694.51,142.27 1141.88,224.49 293.3,53.91 650.43,324.71 707.5,627.04zm-23138.96 -24438.4c-58.85,311.64 2.45,517.25 164.48,682.69 151.24,154.42 303.12,210.16 564.25,293.46 685.95,218.77 453.04,1108.94 1584.88,714.48 259.48,-90.43 1074.02,-217.48 1378.48,-239.43 -32.4,214.47 -164.26,366.21 -38.82,638.76 188.75,410.11 1830.53,421.9 1918.59,346.39 504.7,-149.66 432.21,-727.32 552.84,-1004.98 666.08,-212.23 1202.27,-2064.07 -131.83,-1306.48 -339.37,205.02 -654.81,470.62 -998.63,662.7 -67.34,37.62 -937.82,338.45 -940.71,338.74 3.74,-136.32 32.31,-152.78 37.29,-264.73 12.84,-288.76 -214.26,-639.52 -381.36,-861.66 -179.11,-238.11 -280.25,-327.01 -218.76,-700.56 99.22,-602.79 -176.37,-1046.83 -718.11,-1071.7 -716.51,-32.9 -643.13,536.16 -923.19,920.8 -232.51,319.33 -694.51,142.27 -1141.88,224.49 -293.3,53.91 -650.43,324.71 -707.5,627.04zm-868.68 28143.14c819.43,156.75 673.07,712.12 743.55,1066.02 77.01,386.65 530.91,639.85 -291.16,1118.33 -212.92,123.93 -361.99,198.2 -401.22,479.73 -38.89,279.04 -167.12,432.2 -378.67,535.08 -462.63,225 -635.78,-220.51 -1446.25,-239.01 -854.41,-19.49 -392.28,-663.57 -744.78,-1060.1 -294.49,-331.29 -706.98,-651.26 -326.13,-1161.77 431.23,-578.05 929.68,-419.74 1700.37,-549.31 273.17,-45.92 567.56,-299.3 1144.29,-188.98z"/>
 </g>
</svg>
